<svg xmlns="http://www.w3.org/2000/svg" width="810" viewBox="0 0 810 810" height="810" version="1.0"><defs><clipPath id="a"><path d="M 272 360.824219 L 538.558594 360.824219 L 538.558594 449.085938 L 272 449.085938 Z M 272 360.824219"/></clipPath><clipPath id="b"><path d="M 272 360.824219 L 538 360.824219 L 538 449.085938 L 272 449.085938 Z M 272 360.824219"/></clipPath><clipPath id="c"><path d="M 295 370 L 531 370 L 531 449.085938 L 295 449.085938 Z M 295 370"/></clipPath><clipPath id="d"><path d="M 287 360.824219 L 516 360.824219 L 516 371 L 287 371 Z M 287 360.824219"/></clipPath><clipPath id="e"><path d="M 272 360.824219 L 538.558594 360.824219 L 538.558594 449.085938 L 272 449.085938 Z M 272 360.824219"/></clipPath></defs><g clip-path="url(#a)"><path fill="#BE5920" d="M 537.730469 370.796875 L 537.730469 370.324219 L 531.058594 370.324219 L 531.058594 363.914062 L 530.796875 363.914062 L 530.796875 363.433594 L 523.332031 363.433594 L 523.332031 356.273438 L 523.0625 356.273438 L 523.0625 355.796875 L 515.601562 355.796875 L 515.601562 348.636719 L 515.332031 348.636719 L 515.332031 348.164062 L 295.042969 348.164062 L 295.042969 355.796875 L 288.089844 355.796875 L 288.089844 363.214844 L 287.910156 363.214844 L 287.910156 363.433594 L 280.363281 363.433594 L 280.363281 370.324219 L 272.628906 370.324219 L 272.628906 438.339844 L 272.898438 438.339844 L 272.898438 438.816406 L 280.363281 438.816406 L 280.363281 445.96875 L 280.625 445.96875 L 280.625 446.445312 L 288.089844 446.445312 L 288.089844 452.855469 L 288.339844 452.855469 L 288.339844 453.339844 L 295.042969 453.339844 L 295.042969 460.503906 L 295.308594 460.503906 L 295.308594 460.980469 L 515.601562 460.980469 L 515.601562 453.339844 L 515.515625 453.339844 L 515.515625 452.855469 L 515.601562 452.855469 L 515.601562 453.339844 L 523.355469 453.339844 L 523.355469 446.460938 L 531.082031 446.460938 L 531.082031 438.84375 L 538.039062 438.84375 L 538.039062 370.796875 Z M 515.332031 446.105469 Z M 523.085938 438.339844 L 523.085938 438.132812 Z M 523.085938 438.339844"/></g><g clip-path="url(#b)"><path fill="#BE5920" d="M 530.855469 370.792969 L 530.855469 363.921875 L 523.097656 363.921875 L 523.097656 371.152344 L 522.859375 371.152344 L 522.859375 363.921875 L 523.097656 363.921875 L 523.097656 356.308594 L 515.34375 356.308594 L 515.34375 363.695312 L 515.261719 363.695312 L 515.261719 356.308594 L 515.34375 356.308594 L 515.34375 348.65625 L 295.050781 348.65625 L 295.050781 356.308594 L 288.09375 356.308594 L 288.09375 363.695312 L 287.914062 363.695312 L 287.914062 363.921875 L 280.363281 363.921875 L 280.363281 370.792969 L 272.628906 370.792969 L 272.628906 438.738281 L 280.386719 438.738281 L 280.386719 438.535156 L 280.652344 438.535156 L 280.652344 438.738281 L 280.386719 438.738281 L 280.386719 446.375 L 288.140625 446.375 L 288.140625 453.242188 L 295.050781 453.242188 L 295.050781 460.878906 L 515.390625 460.878906 L 515.390625 453.242188 L 515.308594 453.242188 L 515.308594 446.496094 L 515.390625 446.496094 L 515.390625 453.242188 L 523.148438 453.242188 L 523.148438 446.375 L 530.902344 446.375 L 530.902344 438.738281 L 537.859375 438.738281 L 537.859375 370.792969 Z M 522.855469 446.046875 L 522.855469 439.367188 L 523.09375 439.367188 L 523.09375 446.046875 Z M 530.0625 439.097656 L 523.125 439.097656 L 523.125 438.890625 L 530.0625 438.890625 Z M 530.0625 439.097656"/></g><path fill="#BE5920" d="M 348.449219 378.445312 L 356.050781 378.445312 L 356.050781 386.011719 L 348.449219 386.011719 Z M 348.449219 378.445312"/><path fill="#BE5920" d="M 333.257812 378.445312 L 340.859375 378.445312 L 340.859375 386.011719 L 333.257812 386.011719 Z M 333.257812 378.445312"/><path fill="#BE5920" d="M 325.664062 370.886719 L 318.074219 370.886719 L 318.074219 431.355469 L 325.664062 431.355469 L 325.664062 378.4375 L 333.257812 378.4375 L 333.257812 370.886719 Z M 325.664062 370.886719"/><path fill="#BE5920" d="M 356.050781 370.886719 L 356.050781 378.4375 L 363.640625 378.4375 L 363.640625 431.355469 L 371.226562 431.355469 L 371.226562 370.886719 Z M 356.050781 370.886719"/><path fill="#BE5920" d="M 340.859375 393.558594 L 340.859375 401.117188 L 348.449219 401.117188 L 348.449219 386.011719 L 340.859375 386.011719 Z M 340.859375 393.558594"/><path fill="#BE5920" d="M 477.554688 423.796875 L 469.964844 423.796875 L 469.964844 431.355469 L 492.75 431.355469 L 492.75 423.796875 Z M 477.554688 423.796875"/><path fill="#BE5920" d="M 492.75 370.886719 L 492.75 423.796875 L 500.339844 423.796875 L 500.339844 370.886719 Z M 492.75 370.886719"/><path fill="#BE5920" d="M 394.019531 370.886719 L 378.828125 370.886719 L 378.828125 431.355469 L 409.203125 431.355469 L 409.203125 423.796875 L 386.417969 423.796875 L 386.417969 401.117188 L 401.613281 401.117188 L 401.613281 393.558594 L 386.417969 393.558594 L 386.417969 378.4375 L 409.203125 378.4375 L 409.203125 370.886719 Z M 394.019531 370.886719"/><path fill="#BE5920" d="M 469.964844 408.679688 L 469.964844 370.886719 L 462.367188 370.886719 L 462.367188 423.796875 L 469.964844 423.796875 Z M 469.964844 408.679688"/><path fill="#BE5920" d="M 447.179688 378.4375 L 447.179688 393.558594 L 439.582031 393.558594 L 439.582031 386.011719 L 431.984375 386.011719 L 431.984375 378.4375 L 424.394531 378.4375 L 424.394531 370.886719 L 416.804688 370.886719 L 416.804688 431.355469 L 424.394531 431.355469 L 424.394531 393.558594 L 431.984375 393.558594 L 431.984375 401.117188 L 439.582031 401.117188 L 439.582031 408.679688 L 447.179688 408.679688 L 447.179688 431.355469 L 454.773438 431.355469 L 454.773438 370.886719 L 447.179688 370.886719 Z M 447.179688 378.4375"/><path fill="#BE5920" d="M 447.296875 386.011719 L 447.296875 370.769531 L 439.464844 370.769531 L 439.464844 393.675781 L 447.296875 393.675781 Z M 447.296875 386.011719"/><path fill="#BE5920" d="M 431.863281 408.800781 L 439.464844 408.800781 L 439.464844 431.476562 L 447.296875 431.476562 L 447.296875 408.5625 L 439.703125 408.5625 L 439.703125 400.996094 L 432.101562 400.996094 L 432.101562 393.4375 L 424.273438 393.4375 L 424.273438 401.234375 L 431.863281 401.234375 Z M 431.863281 408.800781"/><path fill="#BE5920" d="M 492.867188 416.234375 L 492.867188 370.769531 L 485.027344 370.769531 L 485.027344 423.917969 L 492.867188 423.917969 Z M 492.867188 416.234375"/><path fill="#BE5920" d="M 416.921875 423.796875 L 416.921875 370.769531 L 409.085938 370.769531 L 409.085938 431.476562 L 416.921875 431.476562 Z M 416.921875 423.796875"/><path fill="#BE5920" d="M 462.25 431.476562 L 470.082031 431.476562 L 470.082031 423.679688 L 462.488281 423.679688 L 462.488281 370.769531 L 454.65625 370.769531 L 454.65625 423.917969 L 462.25 423.917969 Z M 462.25 431.476562"/><path fill="#BE5920" d="M 318.195312 423.796875 L 318.195312 370.769531 L 310.359375 370.769531 L 310.359375 431.476562 L 318.195312 431.476562 Z M 318.195312 423.796875"/><g clip-path="url(#c)"><path fill="#BE5920" d="M 523.539062 371.160156 L 523.539062 370.769531 L 523.058594 370.769531 L 523.058594 438.785156 L 515.46875 438.785156 L 515.46875 446.347656 L 295.4375 446.347656 L 295.4375 453.878906 L 515.707031 453.878906 L 515.707031 446.746094 L 515.808594 446.746094 L 515.808594 446.324219 L 525.175781 446.324219 L 525.175781 440.214844 L 530.507812 440.214844 L 530.507812 371.160156 Z M 523.539062 371.160156"/></g><path fill="#BE5920" d="M 333.140625 393.558594 L 333.140625 401.234375 L 340.980469 401.234375 L 340.980469 385.886719 L 333.378906 385.886719 L 333.378906 378.328125 L 325.542969 378.328125 L 325.542969 386.128906 L 333.140625 386.128906 Z M 333.140625 393.558594"/><path fill="#BE5920" d="M 363.757812 423.796875 L 363.757812 378.328125 L 355.929688 378.328125 L 355.929688 431.476562 L 363.757812 431.476562 Z M 363.757812 423.796875"/><path fill="#BE5920" d="M 378.949219 423.796875 L 378.949219 370.769531 L 371.109375 370.769531 L 371.109375 431.476562 L 378.949219 431.476562 Z M 378.949219 423.796875"/><path fill="#FFEDD1" d="M 280.121094 378.214844 L 280.121094 378.4375 L 287.695312 378.4375 L 287.695312 371.273438 L 280.121094 371.273438 Z M 280.121094 378.214844"/><g clip-path="url(#d)"><path fill="#FFEDD1" d="M 508.015625 355.851562 L 295.628906 355.851562 L 295.628906 363.558594 L 287.875 363.558594 L 287.875 370.886719 L 302.890625 370.886719 L 302.890625 363.332031 L 515.625 363.332031 L 515.625 355.851562 Z M 508.015625 355.851562"/></g><path fill="#FFEDD1" d="M 515.703125 363.558594 L 515.703125 363.332031 L 515.625 363.332031 L 515.625 370.886719 L 523.210938 370.886719 L 523.210938 363.558594 Z M 515.703125 363.558594"/><g clip-path="url(#e)"><path fill="#1A1A1A" d="M 531.378906 370.234375 L 531.378906 363.292969 L 523.625 363.292969 L 523.625 355.574219 L 515.867188 355.574219 L 515.867188 347.878906 L 294.574219 347.878906 L 294.574219 355.597656 L 287.605469 355.597656 L 287.605469 363.316406 L 279.847656 363.316406 L 279.847656 370.234375 L 272.109375 370.234375 L 272.109375 439.382812 L 279.867188 439.382812 L 279.867188 447.105469 L 287.621094 447.105469 L 287.621094 454.039062 L 294.574219 454.039062 L 294.574219 461.757812 L 515.886719 461.757812 L 515.886719 454.039062 L 523.640625 454.039062 L 523.640625 447.09375 L 531.398438 447.09375 L 531.398438 439.371094 L 538.324219 439.371094 L 538.324219 370.234375 Z M 530.0625 378.214844 L 530.0625 438.84375 L 523.09375 438.84375 L 523.09375 445.792969 L 515.335938 445.792969 L 515.335938 453.511719 L 295.886719 453.511719 L 295.886719 445.792969 L 288.128906 445.792969 L 288.128906 438.84375 L 280.375 438.84375 L 280.375 371.539062 L 288.128906 371.539062 L 288.128906 363.820312 L 295.886719 363.820312 L 295.886719 356.101562 L 515.347656 356.101562 L 515.347656 363.820312 L 523.105469 363.820312 L 523.105469 371.539062 L 530.074219 371.539062 Z M 530.0625 378.214844"/></g><g fill="#FFEDD1"><g><g><path d="M 1.671875 0 L 15.03125 0 L 15.03125 -3.613281 L 12.722656 -3.613281 L 12.722656 -2.15625 L 6.011719 -2.15625 L 6.011719 -6.773438 L 13.238281 -6.773438 L 13.238281 -9.261719 L 6.011719 -9.261719 L 6.011719 -14.152344 L 12.722656 -14.152344 L 12.722656 -13.085938 L 15.03125 -13.085938 L 15.03125 -16.703125 L 1.671875 -16.703125 L 1.671875 -14.695312 L 3.066406 -14.695312 L 3.066406 -2.15625 L 1.671875 -2.15625 Z M 1.671875 0" transform="translate(323.136 413.662)"/></g></g></g><g fill="#FFEDD1"><g><g><path d="M 1.640625 0 L 7.167969 0 L 7.167969 -2.003906 L 5.859375 -2.003906 L 5.859375 -14.210938 L 13.148438 0 L 17.703125 0 L 17.703125 -14.695312 L 18.980469 -14.695312 L 18.980469 -16.703125 L 13.453125 -16.703125 L 13.453125 -14.695312 L 14.757812 -14.695312 L 14.757812 -2.761719 L 7.804688 -16.703125 L 1.519531 -16.703125 L 1.519531 -14.695312 L 2.914062 -14.695312 L 2.914062 -2.003906 L 1.640625 -2.003906 Z M 1.640625 0" transform="translate(343.416 413.662)"/></g></g></g><g fill="#FFEDD1"><g><g><path d="M 1.671875 0 L 10.992188 0 C 13.359375 0 16.277344 -1.09375 16.277344 -5.832031 L 16.277344 -10.808594 C 16.277344 -15.578125 13.359375 -16.703125 10.992188 -16.703125 L 1.671875 -16.703125 L 1.671875 -14.695312 L 3.066406 -14.695312 L 3.066406 -2.003906 L 1.671875 -2.003906 Z M 6.011719 -2.15625 L 6.011719 -14.152344 L 9.898438 -14.152344 C 10.597656 -14.152344 13.332031 -14.152344 13.332031 -10.6875 L 13.332031 -5.738281 C 13.332031 -2.1875 10.597656 -2.15625 9.898438 -2.15625 Z M 6.011719 -2.15625" transform="translate(367.49 413.662)"/></g></g></g><g fill="#FFEDD1"><g><g><path d="M 8.957031 0.152344 C 11.144531 0.152344 14.484375 -0.121094 15.273438 -0.515625 L 15.273438 -7.925781 C 15.273438 -8.046875 15.214844 -8.410156 14.820312 -8.410156 L 10.140625 -8.410156 L 10.140625 -5.921875 L 12.328125 -5.921875 L 12.328125 -2.214844 C 11.476562 -2.035156 10.265625 -2.003906 9.777344 -2.003906 L 8.898438 -2.003906 C 8.257812 -2.003906 4.617188 -2.066406 4.617188 -4.585938 L 4.617188 -11.539062 C 4.617188 -14.300781 8.257812 -14.394531 8.898438 -14.394531 L 9.324219 -14.394531 C 9.898438 -14.394531 11.964844 -14.363281 12.9375 -14.027344 L 12.9375 -12.964844 L 15.242188 -12.964844 L 15.242188 -16.0625 C 14.515625 -16.398438 10.960938 -16.851562 8.957031 -16.851562 C 6.5 -16.851562 1.671875 -16.125 1.671875 -11.996094 L 1.671875 -4.34375 C 1.671875 -0.152344 6.527344 0.152344 8.957031 0.152344 Z M 8.957031 0.152344" transform="translate(398.91 413.662)"/></g></g></g><g fill="#FFEDD1"><g><g><path d="M 0.910156 0 L 6.4375 0 L 6.4375 -2.003906 L 5.285156 -2.003906 L 6.347656 -5.496094 L 12.359375 -5.496094 L 13.421875 -2.003906 L 12.296875 -2.003906 L 12.296875 0 L 17.824219 0 L 17.824219 -2.003906 L 16.671875 -2.003906 L 11.691406 -16.703125 L 5.039062 -16.703125 L 5.039062 -14.695312 L 6.347656 -14.695312 L 2.035156 -2.003906 L 0.910156 -2.003906 Z M 7.105469 -7.894531 L 9.351562 -14.667969 L 11.601562 -7.894531 Z M 7.105469 -7.894531" transform="translate(419.432 413.662)"/></g></g></g><g fill="#FFEDD1"><g><g><path d="M 1.671875 0 L 7.195312 0 L 7.195312 -2.035156 L 5.921875 -2.035156 L 6.773438 -14.453125 L 10.597656 -1.488281 L 14.152344 -1.488281 L 18.007812 -14.453125 L 18.917969 -2.035156 L 17.644531 -2.035156 L 17.644531 0 L 23.167969 0 L 23.167969 -2.035156 L 21.894531 -2.035156 L 20.921875 -14.695312 L 22.773438 -14.695312 L 22.773438 -16.703125 L 15.546875 -16.703125 L 12.390625 -4.554688 L 9.261719 -16.703125 L 2.003906 -16.703125 L 2.003906 -14.695312 L 3.855469 -14.695312 L 2.945312 -2.035156 L 1.671875 -2.035156 Z M 1.671875 0" transform="translate(441.745 413.662)"/></g></g></g><g fill="#FFEDD1"><g><g><path d="M 1.671875 0 L 15.03125 0 L 15.03125 -3.613281 L 12.722656 -3.613281 L 12.722656 -2.15625 L 6.011719 -2.15625 L 6.011719 -6.773438 L 13.238281 -6.773438 L 13.238281 -9.261719 L 6.011719 -9.261719 L 6.011719 -14.152344 L 12.722656 -14.152344 L 12.722656 -13.085938 L 15.03125 -13.085938 L 15.03125 -16.703125 L 1.671875 -16.703125 L 1.671875 -14.695312 L 3.066406 -14.695312 L 3.066406 -2.15625 L 1.671875 -2.15625 Z M 1.671875 0" transform="translate(470.16 413.662)"/></g></g></g></svg>