<svg xmlns="http://www.w3.org/2000/svg" width="810" viewBox="0 0 810 810" height="810" version="1.0"><defs><clipPath id="a"><path d="M 313.347656 367.363281 L 496.964844 367.363281 L 496.964844 442.875 L 313.347656 442.875 Z M 313.347656 367.363281"/></clipPath><clipPath id="b"><path d="M 313.347656 367.363281 L 496.964844 367.363281 L 496.964844 442.875 L 313.347656 442.875 Z M 313.347656 367.363281"/></clipPath></defs><g clip-path="url(#a)" fill="#BE5920"><path d="M 496.382812 381.511719 L 496.382812 381.183594 L 491.792969 381.183594 L 491.792969 376.753906 L 491.609375 376.753906 L 491.609375 376.421875 L 486.472656 376.421875 L 486.472656 371.472656 L 486.289062 371.472656 L 486.289062 371.144531 L 481.148438 371.144531 L 481.148438 366.199219 L 480.964844 366.199219 L 480.964844 365.871094 L 329.308594 365.871094 L 329.308594 371.144531 L 324.519531 371.144531 L 324.519531 376.269531 L 324.394531 376.269531 L 324.394531 376.421875 L 319.199219 376.421875 L 319.199219 381.183594 L 313.875 381.183594 L 313.875 428.179688 L 314.058594 428.179688 L 314.058594 428.507812 L 319.199219 428.507812 L 319.199219 433.453125 L 319.378906 433.453125 L 319.378906 433.78125 L 324.519531 433.78125 L 324.519531 438.210938 L 324.691406 438.210938 L 324.691406 438.542969 L 329.308594 438.542969 L 329.308594 443.496094 L 329.488281 443.496094 L 329.488281 443.824219 L 481.148438 443.824219 L 481.148438 438.542969 L 481.089844 438.542969 L 481.089844 438.210938 L 481.148438 438.210938 L 481.148438 438.542969 L 486.488281 438.542969 L 486.488281 433.792969 L 491.808594 433.792969 L 491.808594 428.527344 L 496.597656 428.527344 L 496.597656 381.511719 Z M 480.964844 433.546875 Z M 486.304688 428.179688 L 486.304688 428.035156 Z M 486.304688 428.179688"/><path d="M 491.652344 381.507812 L 491.652344 376.757812 L 486.3125 376.757812 L 486.3125 381.757812 L 486.148438 381.757812 L 486.148438 376.757812 L 486.3125 376.757812 L 486.3125 371.5 L 480.972656 371.5 L 480.972656 376.601562 L 480.914062 376.601562 L 480.914062 371.5 L 480.972656 371.5 L 480.972656 366.210938 L 329.3125 366.210938 L 329.3125 371.5 L 324.523438 371.5 L 324.523438 376.601562 L 324.398438 376.601562 L 324.398438 376.757812 L 319.199219 376.757812 L 319.199219 381.507812 L 313.875 381.507812 L 313.875 428.453125 L 319.214844 428.453125 L 319.214844 428.316406 L 319.398438 428.316406 L 319.398438 428.453125 L 319.214844 428.453125 L 319.214844 433.730469 L 324.554688 433.730469 L 324.554688 438.476562 L 329.3125 438.476562 L 329.3125 443.753906 L 481.003906 443.753906 L 481.003906 438.476562 L 480.949219 438.476562 L 480.949219 433.816406 L 481.003906 433.816406 L 481.003906 438.476562 L 486.34375 438.476562 L 486.34375 433.730469 L 491.683594 433.730469 L 491.683594 428.453125 L 496.472656 428.453125 L 496.472656 381.507812 Z M 486.144531 433.503906 L 486.144531 428.890625 L 486.308594 428.890625 L 486.308594 433.503906 Z M 491.105469 428.703125 L 486.328125 428.703125 L 486.328125 428.5625 L 491.105469 428.5625 Z M 491.105469 428.703125"/></g><path fill="#BE5920" d="M 366.074219 386.792969 L 371.304688 386.792969 L 371.304688 392.019531 L 366.074219 392.019531 Z M 366.074219 386.792969"/><path fill="#BE5920" d="M 355.617188 386.792969 L 360.847656 386.792969 L 360.847656 392.019531 L 355.617188 392.019531 Z M 355.617188 386.792969"/><path fill="#BE5920" d="M 350.386719 381.570312 L 345.164062 381.570312 L 345.164062 423.355469 L 350.386719 423.355469 L 350.386719 386.789062 L 355.617188 386.789062 L 355.617188 381.570312 Z M 350.386719 381.570312"/><path fill="#BE5920" d="M 371.304688 381.570312 L 371.304688 386.789062 L 376.53125 386.789062 L 376.53125 423.355469 L 381.753906 423.355469 L 381.753906 381.570312 Z M 371.304688 381.570312"/><path fill="#BE5920" d="M 360.847656 397.234375 L 360.847656 402.460938 L 366.074219 402.460938 L 366.074219 392.019531 L 360.847656 392.019531 Z M 360.847656 397.234375"/><path fill="#BE5920" d="M 454.957031 418.132812 L 449.730469 418.132812 L 449.730469 423.355469 L 465.417969 423.355469 L 465.417969 418.132812 Z M 454.957031 418.132812"/><path fill="#BE5920" d="M 465.417969 381.570312 L 465.417969 418.132812 L 470.640625 418.132812 L 470.640625 381.570312 Z M 465.417969 381.570312"/><path fill="#BE5920" d="M 397.445312 381.570312 L 386.988281 381.570312 L 386.988281 423.355469 L 407.898438 423.355469 L 407.898438 418.132812 L 392.214844 418.132812 L 392.214844 402.460938 L 402.675781 402.460938 L 402.675781 397.234375 L 392.214844 397.234375 L 392.214844 386.789062 L 407.898438 386.789062 L 407.898438 381.570312 Z M 397.445312 381.570312"/><path fill="#BE5920" d="M 449.730469 407.6875 L 449.730469 381.570312 L 444.5 381.570312 L 444.5 418.132812 L 449.730469 418.132812 Z M 449.730469 407.6875"/><path fill="#BE5920" d="M 434.042969 386.789062 L 434.042969 397.234375 L 428.816406 397.234375 L 428.816406 392.019531 L 423.582031 392.019531 L 423.582031 386.789062 L 418.359375 386.789062 L 418.359375 381.570312 L 413.132812 381.570312 L 413.132812 423.355469 L 418.359375 423.355469 L 418.359375 397.234375 L 423.582031 397.234375 L 423.582031 402.460938 L 428.816406 402.460938 L 428.816406 407.6875 L 434.042969 407.6875 L 434.042969 423.355469 L 439.273438 423.355469 L 439.273438 381.570312 L 434.042969 381.570312 Z M 434.042969 386.789062"/><path fill="#BE5920" d="M 434.125 392.019531 L 434.125 381.488281 L 428.734375 381.488281 L 428.734375 397.316406 L 434.125 397.316406 Z M 434.125 392.019531"/><path fill="#BE5920" d="M 423.5 407.769531 L 428.734375 407.769531 L 428.734375 423.4375 L 434.125 423.4375 L 434.125 407.605469 L 428.898438 407.605469 L 428.898438 402.378906 L 423.664062 402.378906 L 423.664062 397.152344 L 418.277344 397.152344 L 418.277344 402.542969 L 423.5 402.542969 Z M 423.5 407.769531"/><path fill="#BE5920" d="M 465.5 412.90625 L 465.5 381.488281 L 460.101562 381.488281 L 460.101562 418.214844 L 465.5 418.214844 Z M 465.5 412.90625"/><path fill="#BE5920" d="M 413.214844 418.132812 L 413.214844 381.488281 L 407.816406 381.488281 L 407.816406 423.4375 L 413.214844 423.4375 Z M 413.214844 418.132812"/><path fill="#BE5920" d="M 444.417969 423.4375 L 449.8125 423.4375 L 449.8125 418.050781 L 444.582031 418.050781 L 444.582031 381.488281 L 439.191406 381.488281 L 439.191406 418.214844 L 444.417969 418.214844 Z M 444.417969 423.4375"/><path fill="#BE5920" d="M 345.246094 418.132812 L 345.246094 381.488281 L 339.851562 381.488281 L 339.851562 423.4375 L 345.246094 423.4375 Z M 345.246094 418.132812"/><path fill="#BE5920" d="M 486.617188 381.761719 L 486.617188 381.488281 L 486.28125 381.488281 L 486.28125 428.488281 L 481.058594 428.488281 L 481.058594 433.714844 L 329.578125 433.714844 L 329.578125 438.917969 L 481.222656 438.917969 L 481.222656 433.988281 L 481.292969 433.988281 L 481.292969 433.699219 L 487.742188 433.699219 L 487.742188 429.476562 L 491.414062 429.476562 L 491.414062 381.761719 Z M 486.617188 381.761719"/><path fill="#BE5920" d="M 355.535156 397.234375 L 355.535156 402.542969 L 360.929688 402.542969 L 360.929688 391.933594 L 355.699219 391.933594 L 355.699219 386.710938 L 350.304688 386.710938 L 350.304688 392.105469 L 355.535156 392.105469 Z M 355.535156 397.234375"/><path fill="#BE5920" d="M 376.613281 418.132812 L 376.613281 386.710938 L 371.222656 386.710938 L 371.222656 423.4375 L 376.613281 423.4375 Z M 376.613281 418.132812"/><path fill="#BE5920" d="M 387.070312 418.132812 L 387.070312 381.488281 L 381.671875 381.488281 L 381.671875 423.4375 L 387.070312 423.4375 Z M 387.070312 418.132812"/><path fill="#FFEDD1" d="M 319.035156 386.632812 L 319.035156 386.789062 L 324.246094 386.789062 L 324.246094 381.839844 L 319.035156 381.839844 Z M 319.035156 386.632812"/><path fill="#FFEDD1" d="M 475.929688 371.183594 L 329.710938 371.183594 L 329.710938 376.507812 L 324.371094 376.507812 L 324.371094 381.570312 L 334.707031 381.570312 L 334.707031 376.351562 L 481.164062 376.351562 L 481.164062 371.183594 Z M 475.929688 371.183594"/><path fill="#FFEDD1" d="M 481.21875 376.507812 L 481.21875 376.351562 L 481.164062 376.351562 L 481.164062 381.570312 L 486.390625 381.570312 L 486.390625 376.507812 Z M 481.21875 376.507812"/><g clip-path="url(#b)"><path fill="#1A1A1A" d="M 492.011719 381.121094 L 492.011719 376.324219 L 486.671875 376.324219 L 486.671875 370.992188 L 481.332031 370.992188 L 481.332031 365.671875 L 328.984375 365.671875 L 328.984375 371.007812 L 324.183594 371.007812 L 324.183594 376.339844 L 318.84375 376.339844 L 318.84375 381.121094 L 313.519531 381.121094 L 313.519531 428.902344 L 318.859375 428.902344 L 318.859375 434.234375 L 324.199219 434.234375 L 324.199219 439.027344 L 328.984375 439.027344 L 328.984375 444.363281 L 481.347656 444.363281 L 481.347656 439.027344 L 486.6875 439.027344 L 486.6875 434.226562 L 492.023438 434.226562 L 492.023438 428.894531 L 496.792969 428.894531 L 496.792969 381.121094 Z M 491.105469 386.632812 L 491.105469 428.527344 L 486.308594 428.527344 L 486.308594 433.328125 L 480.96875 433.328125 L 480.96875 438.664062 L 329.886719 438.664062 L 329.886719 433.328125 L 324.546875 433.328125 L 324.546875 428.527344 L 319.207031 428.527344 L 319.207031 382.023438 L 324.546875 382.023438 L 324.546875 376.6875 L 329.886719 376.6875 L 329.886719 371.355469 L 480.976562 371.355469 L 480.976562 376.6875 L 486.316406 376.6875 L 486.316406 382.023438 L 491.113281 382.023438 Z M 491.105469 386.632812"/></g><g fill="#FFF"><g><g><path d="M 1.375 0 L 6 0 L 6 -1.679688 L 4.90625 -1.679688 L 4.90625 -11.898438 L 11.011719 0 L 14.824219 0 L 14.824219 -12.308594 L 15.890625 -12.308594 L 15.890625 -13.984375 L 11.265625 -13.984375 L 11.265625 -12.308594 L 12.359375 -12.308594 L 12.359375 -2.3125 L 6.535156 -13.984375 L 1.269531 -13.984375 L 1.269531 -12.308594 L 2.441406 -12.308594 L 2.441406 -1.679688 L 1.375 -1.679688 Z M 1.375 0" transform="translate(387.65 412.341)"/></g></g></g><g fill="#FFF"><g><g><path d="M 7.246094 0.128906 C 9.355469 0.128906 13.144531 0.128906 13.144531 -3.964844 L 13.144531 -10.042969 C 13.144531 -13.679688 9.355469 -14.113281 7.246094 -14.113281 C 5.1875 -14.113281 1.398438 -13.679688 1.398438 -10.042969 L 1.398438 -3.964844 C 1.398438 0.128906 5.1875 0.128906 7.246094 0.128906 Z M 7.246094 -1.679688 C 6.101562 -1.679688 3.863281 -1.679688 3.863281 -4.09375 L 3.863281 -9.6875 C 3.863281 -11.976562 6.660156 -11.976562 7.273438 -11.976562 C 7.882812 -11.976562 10.679688 -11.976562 10.679688 -9.6875 L 10.679688 -4.09375 C 10.679688 -1.679688 8.367188 -1.679688 7.246094 -1.679688 Z M 7.246094 -1.679688" transform="translate(407.806 412.341)"/></g></g></g></svg>