<?xml version="1.0" encoding="UTF-8"?>
<svg xmlns="http://www.w3.org/2000/svg" xmlns:xlink="http://www.w3.org/1999/xlink" width="115px" height="50px" viewBox="25.5 34.5 19 1" version="1.1">
<defs>
<clipPath id="clip1">
  <path d="M 26.023438 31.375 L 43.988281 31.375 L 43.988281 38.617188 L 26.023438 38.617188 Z M 26.023438 31.375 "/>
</clipPath>
<clipPath id="clip2">
  <path d="M 26.023438 31.375 L 44 31.375 L 44 38.617188 L 26.023438 38.617188 Z M 26.023438 31.375 "/>
</clipPath>
</defs>
<g id="surface1">
<g clip-path="url(#clip1)" clip-rule="nonzero">
<path style=" stroke:none;fill-rule:nonzero;fill:rgb(50.588235%,66.27451%,41.176471%);fill-opacity:1;" d="M 43.953125 32.699219 L 43.953125 32.667969 L 43.5 32.667969 L 43.5 32.234375 L 43.484375 32.234375 L 43.484375 32.199219 L 42.980469 32.199219 L 42.980469 31.714844 L 42.960938 31.714844 L 42.960938 31.683594 L 42.460938 31.683594 L 42.460938 31.199219 L 42.441406 31.199219 L 42.441406 31.167969 L 27.585938 31.167969 L 27.585938 31.683594 L 27.117188 31.683594 L 27.117188 32.1875 L 27.105469 32.1875 L 27.105469 32.199219 L 26.59375 32.199219 L 26.59375 32.667969 L 26.074219 32.667969 L 26.074219 37.269531 L 26.089844 37.269531 L 26.089844 37.304688 L 26.59375 37.304688 L 26.59375 37.785156 L 26.613281 37.785156 L 26.613281 37.820312 L 27.117188 37.820312 L 27.117188 38.253906 L 27.132812 38.253906 L 27.132812 38.285156 L 27.585938 38.285156 L 27.585938 38.769531 L 27.601562 38.769531 L 27.601562 38.804688 L 42.460938 38.804688 L 42.460938 38.285156 L 42.453125 38.285156 L 42.453125 38.253906 L 42.460938 38.253906 L 42.460938 38.285156 L 42.984375 38.285156 L 42.984375 37.820312 L 43.503906 37.820312 L 43.503906 37.304688 L 43.972656 37.304688 L 43.972656 32.699219 Z M 42.441406 37.796875 Z M 42.964844 37.269531 L 42.964844 37.257812 Z M 42.964844 37.269531 "/>
<path style=" stroke:none;fill-rule:nonzero;fill:rgb(50.588235%,66.27451%,41.176471%);fill-opacity:1;" d="M 43.488281 32.699219 L 43.488281 32.234375 L 42.964844 32.234375 L 42.964844 32.722656 L 42.949219 32.722656 L 42.949219 32.234375 L 42.964844 32.234375 L 42.964844 31.71875 L 42.441406 31.71875 L 42.441406 32.21875 L 42.4375 32.21875 L 42.4375 31.71875 L 42.441406 31.71875 L 42.441406 31.199219 L 27.585938 31.199219 L 27.585938 31.71875 L 27.117188 31.71875 L 27.117188 32.21875 L 27.105469 32.21875 L 27.105469 32.234375 L 26.59375 32.234375 L 26.59375 32.699219 L 26.074219 32.699219 L 26.074219 37.296875 L 26.597656 37.296875 L 26.597656 37.285156 L 26.613281 37.285156 L 26.613281 37.296875 L 26.597656 37.296875 L 26.597656 37.8125 L 27.121094 37.8125 L 27.121094 38.28125 L 27.585938 38.28125 L 27.585938 38.796875 L 42.445312 38.796875 L 42.445312 38.28125 L 42.441406 38.28125 L 42.441406 37.824219 L 42.445312 37.824219 L 42.445312 38.28125 L 42.96875 38.28125 L 42.96875 37.8125 L 43.492188 37.8125 L 43.492188 37.296875 L 43.960938 37.296875 L 43.960938 32.699219 Z M 42.949219 37.792969 L 42.949219 37.339844 L 42.964844 37.339844 L 42.964844 37.792969 Z M 43.433594 37.320312 L 42.96875 37.320312 L 42.96875 37.308594 L 43.433594 37.308594 Z M 43.433594 37.320312 "/>
</g>
<path style=" stroke:none;fill-rule:nonzero;fill:rgb(50.588235%,66.27451%,41.176471%);fill-opacity:1;" d="M 31.1875 33.214844 L 31.699219 33.214844 L 31.699219 33.730469 L 31.1875 33.730469 Z M 31.1875 33.214844 "/>
<path style=" stroke:none;fill-rule:nonzero;fill:rgb(50.588235%,66.27451%,41.176471%);fill-opacity:1;" d="M 30.164062 33.214844 L 30.675781 33.214844 L 30.675781 33.730469 L 30.164062 33.730469 Z M 30.164062 33.214844 "/>
<path style=" stroke:none;fill-rule:nonzero;fill:rgb(50.588235%,66.27451%,41.176471%);fill-opacity:1;" d="M 29.648438 32.703125 L 29.136719 32.703125 L 29.136719 36.796875 L 29.648438 36.796875 L 29.648438 33.214844 L 30.164062 33.214844 L 30.164062 32.703125 Z M 29.648438 32.703125 "/>
<path style=" stroke:none;fill-rule:nonzero;fill:rgb(50.588235%,66.27451%,41.176471%);fill-opacity:1;" d="M 31.699219 32.703125 L 31.699219 33.214844 L 32.210938 33.214844 L 32.210938 36.796875 L 32.722656 36.796875 L 32.722656 32.703125 Z M 31.699219 32.703125 "/>
<path style=" stroke:none;fill-rule:nonzero;fill:rgb(50.588235%,66.27451%,41.176471%);fill-opacity:1;" d="M 30.675781 34.238281 L 30.675781 34.75 L 31.1875 34.75 L 31.1875 33.730469 L 30.675781 33.730469 Z M 30.675781 34.238281 "/>
<path style=" stroke:none;fill-rule:nonzero;fill:rgb(50.588235%,66.27451%,41.176471%);fill-opacity:1;" d="M 39.894531 36.285156 L 39.382812 36.285156 L 39.382812 36.796875 L 40.917969 36.796875 L 40.917969 36.285156 Z M 39.894531 36.285156 "/>
<path style=" stroke:none;fill-rule:nonzero;fill:rgb(50.588235%,66.27451%,41.176471%);fill-opacity:1;" d="M 40.917969 32.703125 L 40.917969 36.285156 L 41.429688 36.285156 L 41.429688 32.703125 Z M 40.917969 32.703125 "/>
<path style=" stroke:none;fill-rule:nonzero;fill:rgb(50.588235%,66.27451%,41.176471%);fill-opacity:1;" d="M 34.261719 32.703125 L 33.234375 32.703125 L 33.234375 36.796875 L 35.285156 36.796875 L 35.285156 36.285156 L 33.746094 36.285156 L 33.746094 34.75 L 34.773438 34.75 L 34.773438 34.238281 L 33.746094 34.238281 L 33.746094 33.214844 L 35.285156 33.214844 L 35.285156 32.703125 Z M 34.261719 32.703125 "/>
<path style=" stroke:none;fill-rule:nonzero;fill:rgb(50.588235%,66.27451%,41.176471%);fill-opacity:1;" d="M 39.382812 35.261719 L 39.382812 32.703125 L 38.871094 32.703125 L 38.871094 36.285156 L 39.382812 36.285156 Z M 39.382812 35.261719 "/>
<path style=" stroke:none;fill-rule:nonzero;fill:rgb(50.588235%,66.27451%,41.176471%);fill-opacity:1;" d="M 37.84375 33.214844 L 37.84375 34.238281 L 37.332031 34.238281 L 37.332031 33.730469 L 36.820312 33.730469 L 36.820312 33.214844 L 36.308594 33.214844 L 36.308594 32.703125 L 35.796875 32.703125 L 35.796875 36.796875 L 36.308594 36.796875 L 36.308594 34.238281 L 36.820312 34.238281 L 36.820312 34.75 L 37.332031 34.75 L 37.332031 35.261719 L 37.84375 35.261719 L 37.84375 36.796875 L 38.355469 36.796875 L 38.355469 32.703125 L 37.84375 32.703125 Z M 37.84375 33.214844 "/>
<path style=" stroke:none;fill-rule:nonzero;fill:rgb(50.588235%,66.27451%,41.176471%);fill-opacity:1;" d="M 37.851562 33.730469 L 37.851562 32.695312 L 37.324219 32.695312 L 37.324219 34.246094 L 37.851562 34.246094 Z M 37.851562 33.730469 "/>
<path style=" stroke:none;fill-rule:nonzero;fill:rgb(50.588235%,66.27451%,41.176471%);fill-opacity:1;" d="M 36.8125 35.269531 L 37.324219 35.269531 L 37.324219 36.804688 L 37.851562 36.804688 L 37.851562 35.253906 L 37.339844 35.253906 L 37.339844 34.742188 L 36.828125 34.742188 L 36.828125 34.230469 L 36.300781 34.230469 L 36.300781 34.757812 L 36.8125 34.757812 Z M 36.8125 35.269531 "/>
<path style=" stroke:none;fill-rule:nonzero;fill:rgb(50.588235%,66.27451%,41.176471%);fill-opacity:1;" d="M 40.925781 35.773438 L 40.925781 32.695312 L 40.398438 32.695312 L 40.398438 36.292969 L 40.925781 36.292969 Z M 40.925781 35.773438 "/>
<path style=" stroke:none;fill-rule:nonzero;fill:rgb(50.588235%,66.27451%,41.176471%);fill-opacity:1;" d="M 35.804688 36.285156 L 35.804688 32.695312 L 35.277344 32.695312 L 35.277344 36.804688 L 35.804688 36.804688 Z M 35.804688 36.285156 "/>
<path style=" stroke:none;fill-rule:nonzero;fill:rgb(50.588235%,66.27451%,41.176471%);fill-opacity:1;" d="M 38.863281 36.804688 L 39.390625 36.804688 L 39.390625 36.277344 L 38.878906 36.277344 L 38.878906 32.695312 L 38.347656 32.695312 L 38.347656 36.292969 L 38.863281 36.292969 Z M 38.863281 36.804688 "/>
<path style=" stroke:none;fill-rule:nonzero;fill:rgb(50.588235%,66.27451%,41.176471%);fill-opacity:1;" d="M 29.144531 36.285156 L 29.144531 32.695312 L 28.617188 32.695312 L 28.617188 36.804688 L 29.144531 36.804688 Z M 29.144531 36.285156 "/>
<path style=" stroke:none;fill-rule:nonzero;fill:rgb(50.588235%,66.27451%,41.176471%);fill-opacity:1;" d="M 42.996094 32.722656 L 42.996094 32.695312 L 42.960938 32.695312 L 42.960938 37.300781 L 42.449219 37.300781 L 42.449219 37.8125 L 27.613281 37.8125 L 27.613281 38.324219 L 42.46875 38.324219 L 42.46875 37.839844 L 42.472656 37.839844 L 42.472656 37.8125 L 43.105469 37.8125 L 43.105469 37.398438 L 43.464844 37.398438 L 43.464844 32.722656 Z M 42.996094 32.722656 "/>
<path style=" stroke:none;fill-rule:nonzero;fill:rgb(50.588235%,66.27451%,41.176471%);fill-opacity:1;" d="M 30.15625 34.238281 L 30.15625 34.757812 L 30.683594 34.757812 L 30.683594 33.71875 L 30.171875 33.71875 L 30.171875 33.207031 L 29.640625 33.207031 L 29.640625 33.738281 L 30.15625 33.738281 Z M 30.15625 34.238281 "/>
<path style=" stroke:none;fill-rule:nonzero;fill:rgb(50.588235%,66.27451%,41.176471%);fill-opacity:1;" d="M 32.21875 36.285156 L 32.21875 33.207031 L 31.691406 33.207031 L 31.691406 36.804688 L 32.21875 36.804688 Z M 32.21875 36.285156 "/>
<path style=" stroke:none;fill-rule:nonzero;fill:rgb(50.588235%,66.27451%,41.176471%);fill-opacity:1;" d="M 33.242188 36.285156 L 33.242188 32.695312 L 32.714844 32.695312 L 32.714844 36.804688 L 33.242188 36.804688 Z M 33.242188 36.285156 "/>
<path style=" stroke:none;fill-rule:nonzero;fill:rgb(100%,92.941176%,81.960784%);fill-opacity:1;" d="M 26.578125 33.199219 L 26.578125 33.214844 L 27.089844 33.214844 L 27.089844 32.730469 L 26.578125 32.730469 Z M 26.578125 33.199219 "/>
<path style=" stroke:none;fill-rule:nonzero;fill:rgb(100%,92.941176%,81.960784%);fill-opacity:1;" d="M 41.949219 31.6875 L 27.625 31.6875 L 27.625 32.207031 L 27.101562 32.207031 L 27.101562 32.703125 L 28.113281 32.703125 L 28.113281 32.195312 L 42.460938 32.195312 L 42.460938 31.6875 Z M 41.949219 31.6875 "/>
<path style=" stroke:none;fill-rule:nonzero;fill:rgb(100%,92.941176%,81.960784%);fill-opacity:1;" d="M 42.464844 32.207031 L 42.464844 32.195312 L 42.460938 32.195312 L 42.460938 32.703125 L 42.972656 32.703125 L 42.972656 32.207031 Z M 42.464844 32.207031 "/>
<g clip-path="url(#clip2)" clip-rule="nonzero">
<path style=" stroke:none;fill-rule:nonzero;fill:rgb(10.196078%,10.196078%,10.196078%);fill-opacity:1;" d="M 43.523438 32.660156 L 43.523438 32.191406 L 43 32.191406 L 43 31.667969 L 42.476562 31.667969 L 42.476562 31.148438 L 27.554688 31.148438 L 27.554688 31.671875 L 27.082031 31.671875 L 27.082031 32.191406 L 26.558594 32.191406 L 26.558594 32.660156 L 26.039062 32.660156 L 26.039062 37.339844 L 26.5625 37.339844 L 26.5625 37.863281 L 27.085938 37.863281 L 27.085938 38.332031 L 27.554688 38.332031 L 27.554688 38.855469 L 42.480469 38.855469 L 42.480469 38.332031 L 43 38.332031 L 43 37.863281 L 43.523438 37.863281 L 43.523438 37.339844 L 43.992188 37.339844 L 43.992188 32.660156 Z M 43.433594 33.199219 L 43.433594 37.304688 L 42.964844 37.304688 L 42.964844 37.773438 L 42.441406 37.773438 L 42.441406 38.296875 L 27.640625 38.296875 L 27.640625 37.773438 L 27.117188 37.773438 L 27.117188 37.304688 L 26.59375 37.304688 L 26.59375 32.75 L 27.117188 32.75 L 27.117188 32.226562 L 27.640625 32.226562 L 27.640625 31.703125 L 42.441406 31.703125 L 42.441406 32.226562 L 42.964844 32.226562 L 42.964844 32.75 L 43.4375 32.75 Z M 43.433594 33.199219 "/>
</g>
<path style=" stroke:none;fill-rule:nonzero;fill:rgb(100%,92.941176%,81.960784%);fill-opacity:1;" d="M 31.839844 35.710938 L 32.292969 35.710938 L 32.292969 35.546875 L 32.1875 35.546875 L 32.1875 35.203125 L 32.472656 35.203125 C 32.953125 35.203125 32.953125 34.875 32.953125 34.746094 C 32.953125 34.417969 32.71875 34.339844 32.527344 34.339844 L 31.832031 34.339844 L 31.832031 34.503906 L 31.945312 34.503906 L 31.945312 35.546875 L 31.839844 35.546875 Z M 32.1875 35.003906 L 32.1875 34.550781 L 32.441406 34.550781 C 32.492188 34.550781 32.714844 34.550781 32.714844 34.753906 C 32.714844 34.867188 32.710938 35.003906 32.453125 35.003906 Z M 32.1875 35.003906 "/>
<path style=" stroke:none;fill-rule:nonzero;fill:rgb(100%,92.941176%,81.960784%);fill-opacity:1;" d="M 33.472656 35.710938 L 34.570312 35.710938 L 34.570312 35.414062 L 34.378906 35.414062 L 34.378906 35.535156 L 33.828125 35.535156 L 33.828125 34.503906 L 33.933594 34.503906 L 33.933594 34.339844 L 33.480469 34.339844 L 33.480469 34.503906 L 33.585938 34.503906 L 33.585938 35.535156 L 33.472656 35.535156 Z M 33.472656 35.710938 "/>
<path style=" stroke:none;fill-rule:nonzero;fill:rgb(100%,92.941176%,81.960784%);fill-opacity:1;" d="M 35.011719 35.710938 L 35.464844 35.710938 L 35.464844 35.546875 L 35.371094 35.546875 L 35.457031 35.257812 L 35.949219 35.257812 L 36.039062 35.546875 L 35.945312 35.546875 L 35.945312 35.710938 L 36.398438 35.710938 L 36.398438 35.546875 L 36.304688 35.546875 L 35.894531 34.339844 L 35.351562 34.339844 L 35.351562 34.503906 L 35.457031 34.503906 L 35.105469 35.546875 L 35.011719 35.546875 Z M 35.519531 35.0625 L 35.703125 34.507812 L 35.886719 35.0625 Z M 35.519531 35.0625 "/>
<path style=" stroke:none;fill-rule:nonzero;fill:rgb(100%,92.941176%,81.960784%);fill-opacity:1;" d="M 37.3125 35.710938 L 37.761719 35.710938 L 37.761719 35.546875 L 37.65625 35.546875 L 37.65625 35.179688 L 38.113281 34.503906 L 38.230469 34.503906 L 38.230469 34.339844 L 37.699219 34.339844 L 37.699219 34.503906 L 37.828125 34.503906 L 37.539062 34.941406 L 37.25 34.503906 L 37.371094 34.503906 L 37.371094 34.339844 L 36.84375 34.339844 L 36.84375 34.503906 L 36.960938 34.503906 L 37.414062 35.183594 L 37.414062 35.546875 L 37.3125 35.546875 Z M 37.3125 35.710938 "/>
</g>
</svg>
