<svg xmlns="http://www.w3.org/2000/svg" width="810" viewBox="0 0 810 810" height="810" version="1.0"><defs><clipPath id="a"><path d="M 301.109375 363.058594 L 509 363.058594 L 509 446.855469 L 301.109375 446.855469 Z M 301.109375 363.058594"/></clipPath><clipPath id="b"><path d="M 301.109375 363.058594 L 509.242188 363.058594 L 509.242188 446.855469 L 301.109375 446.855469 Z M 301.109375 363.058594"/></clipPath></defs><g clip-path="url(#a)" fill="#81A969"><path d="M 508.585938 378.375 L 508.585938 378 L 503.378906 378 L 503.378906 372.984375 L 503.175781 372.984375 L 503.175781 372.605469 L 497.351562 372.605469 L 497.351562 366.996094 L 497.140625 366.996094 L 497.140625 366.625 L 491.316406 366.625 L 491.316406 361.015625 L 491.105469 361.015625 L 491.105469 360.644531 L 319.199219 360.644531 L 319.199219 366.625 L 313.769531 366.625 L 313.769531 372.433594 L 313.632812 372.433594 L 313.632812 372.605469 L 307.742188 372.605469 L 307.742188 378 L 301.707031 378 L 301.707031 431.273438 L 301.917969 431.273438 L 301.917969 431.648438 L 307.742188 431.648438 L 307.742188 437.25 L 307.945312 437.25 L 307.945312 437.625 L 313.769531 437.625 L 313.769531 442.644531 L 313.96875 442.644531 L 313.96875 443.023438 L 319.199219 443.023438 L 319.199219 448.636719 L 319.40625 448.636719 L 319.40625 449.007812 L 491.316406 449.007812 L 491.316406 443.023438 L 491.25 443.023438 L 491.25 442.644531 L 491.316406 442.644531 L 491.316406 443.023438 L 497.371094 443.023438 L 497.371094 437.636719 L 503.398438 437.636719 L 503.398438 431.671875 L 508.828125 431.671875 L 508.828125 378.375 Z M 491.105469 437.359375 Z M 497.160156 431.273438 L 497.160156 431.113281 Z M 497.160156 431.273438"/><path d="M 503.222656 378.367188 L 503.222656 372.988281 L 497.167969 372.988281 L 497.167969 378.652344 L 496.984375 378.652344 L 496.984375 372.988281 L 497.167969 372.988281 L 497.167969 367.027344 L 491.117188 367.027344 L 491.117188 372.8125 L 491.050781 372.8125 L 491.050781 367.027344 L 491.117188 367.027344 L 491.117188 361.03125 L 319.203125 361.03125 L 319.203125 367.027344 L 313.777344 367.027344 L 313.777344 372.8125 L 313.636719 372.8125 L 313.636719 372.988281 L 307.742188 372.988281 L 307.742188 378.367188 L 301.707031 378.367188 L 301.707031 431.585938 L 307.761719 431.585938 L 307.761719 431.429688 L 307.96875 431.429688 L 307.96875 431.585938 L 307.761719 431.585938 L 307.761719 437.566406 L 313.8125 437.566406 L 313.8125 442.949219 L 319.203125 442.949219 L 319.203125 448.929688 L 491.152344 448.929688 L 491.152344 442.949219 L 491.089844 442.949219 L 491.089844 437.664062 L 491.152344 437.664062 L 491.152344 442.949219 L 497.207031 442.949219 L 497.207031 437.566406 L 503.257812 437.566406 L 503.257812 431.585938 L 508.6875 431.585938 L 508.6875 378.367188 Z M 496.976562 437.3125 L 496.976562 432.078125 L 497.164062 432.078125 L 497.164062 437.3125 Z M 502.601562 431.871094 L 497.1875 431.871094 L 497.1875 431.707031 L 502.601562 431.707031 Z M 502.601562 431.871094"/></g><path fill="#81A969" d="M 360.875 384.363281 L 366.808594 384.363281 L 366.808594 390.289062 L 360.875 390.289062 Z M 360.875 384.363281"/><path fill="#81A969" d="M 349.023438 384.363281 L 354.953125 384.363281 L 354.953125 390.289062 L 349.023438 390.289062 Z M 349.023438 384.363281"/><path fill="#81A969" d="M 343.09375 378.441406 L 337.171875 378.441406 L 337.171875 425.804688 L 343.09375 425.804688 L 343.09375 384.359375 L 349.023438 384.359375 L 349.023438 378.441406 Z M 343.09375 378.441406"/><path fill="#81A969" d="M 366.808594 378.441406 L 366.808594 384.359375 L 372.730469 384.359375 L 372.730469 425.804688 L 378.652344 425.804688 L 378.652344 378.441406 Z M 366.808594 378.441406"/><path fill="#81A969" d="M 354.953125 396.199219 L 354.953125 402.121094 L 360.875 402.121094 L 360.875 390.289062 L 354.953125 390.289062 Z M 354.953125 396.199219"/><path fill="#81A969" d="M 461.625 419.886719 L 455.703125 419.886719 L 455.703125 425.804688 L 473.484375 425.804688 L 473.484375 419.886719 Z M 461.625 419.886719"/><path fill="#81A969" d="M 473.484375 378.441406 L 473.484375 419.886719 L 479.40625 419.886719 L 479.40625 378.441406 Z M 473.484375 378.441406"/><path fill="#81A969" d="M 396.4375 378.441406 L 384.582031 378.441406 L 384.582031 425.804688 L 408.289062 425.804688 L 408.289062 419.886719 L 390.507812 419.886719 L 390.507812 402.121094 L 402.363281 402.121094 L 402.363281 396.199219 L 390.507812 396.199219 L 390.507812 384.359375 L 408.289062 384.359375 L 408.289062 378.441406 Z M 396.4375 378.441406"/><path fill="#81A969" d="M 455.703125 408.042969 L 455.703125 378.441406 L 449.777344 378.441406 L 449.777344 419.886719 L 455.703125 419.886719 Z M 455.703125 408.042969"/><path fill="#81A969" d="M 437.921875 384.359375 L 437.921875 396.199219 L 431.996094 396.199219 L 431.996094 390.289062 L 426.0625 390.289062 L 426.0625 384.359375 L 420.140625 384.359375 L 420.140625 378.441406 L 414.21875 378.441406 L 414.21875 425.804688 L 420.140625 425.804688 L 420.140625 396.199219 L 426.0625 396.199219 L 426.0625 402.121094 L 431.996094 402.121094 L 431.996094 408.042969 L 437.921875 408.042969 L 437.921875 425.804688 L 443.847656 425.804688 L 443.847656 378.441406 L 437.921875 378.441406 Z M 437.921875 384.359375"/><path fill="#81A969" d="M 438.015625 390.289062 L 438.015625 378.351562 L 431.902344 378.351562 L 431.902344 396.292969 L 438.015625 396.292969 Z M 438.015625 390.289062"/><path fill="#81A969" d="M 425.96875 408.136719 L 431.902344 408.136719 L 431.902344 425.898438 L 438.015625 425.898438 L 438.015625 407.953125 L 432.089844 407.953125 L 432.089844 402.027344 L 426.15625 402.027344 L 426.15625 396.105469 L 420.046875 396.105469 L 420.046875 402.210938 L 425.96875 402.210938 Z M 425.96875 408.136719"/><path fill="#81A969" d="M 473.578125 413.960938 L 473.578125 378.351562 L 467.460938 378.351562 L 467.460938 419.976562 L 473.578125 419.976562 Z M 473.578125 413.960938"/><path fill="#81A969" d="M 414.3125 419.886719 L 414.3125 378.351562 L 408.195312 378.351562 L 408.195312 425.898438 L 414.3125 425.898438 Z M 414.3125 419.886719"/><path fill="#81A969" d="M 449.683594 425.898438 L 455.796875 425.898438 L 455.796875 419.792969 L 449.871094 419.792969 L 449.871094 378.351562 L 443.757812 378.351562 L 443.757812 419.976562 L 449.683594 419.976562 Z M 449.683594 425.898438"/><path fill="#81A969" d="M 337.265625 419.886719 L 337.265625 378.351562 L 331.152344 378.351562 L 331.152344 425.898438 L 337.265625 425.898438 Z M 337.265625 419.886719"/><path fill="#81A969" d="M 497.515625 378.65625 L 497.515625 378.351562 L 497.136719 378.351562 L 497.136719 431.625 L 491.214844 431.625 L 491.214844 437.546875 L 319.507812 437.546875 L 319.507812 443.445312 L 491.402344 443.445312 L 491.402344 437.859375 L 491.480469 437.859375 L 491.480469 437.53125 L 498.789062 437.53125 L 498.789062 432.746094 L 502.953125 432.746094 L 502.953125 378.65625 Z M 497.515625 378.65625"/><path fill="#81A969" d="M 348.929688 396.199219 L 348.929688 402.210938 L 355.046875 402.210938 L 355.046875 390.191406 L 349.113281 390.191406 L 349.113281 384.269531 L 343 384.269531 L 343 390.382812 L 348.929688 390.382812 Z M 348.929688 396.199219"/><path fill="#81A969" d="M 372.824219 419.886719 L 372.824219 384.269531 L 366.714844 384.269531 L 366.714844 425.898438 L 372.824219 425.898438 Z M 372.824219 419.886719"/><path fill="#81A969" d="M 384.675781 419.886719 L 384.675781 378.351562 L 378.558594 378.351562 L 378.558594 425.898438 L 384.675781 425.898438 Z M 384.675781 419.886719"/><path fill="#FFEDD1" d="M 307.554688 384.183594 L 307.554688 384.359375 L 313.464844 384.359375 L 313.464844 378.746094 L 307.554688 378.746094 Z M 307.554688 384.183594"/><path fill="#FFEDD1" d="M 485.398438 366.667969 L 319.65625 366.667969 L 319.65625 372.703125 L 313.605469 372.703125 L 313.605469 378.441406 L 325.324219 378.441406 L 325.324219 372.527344 L 491.335938 372.527344 L 491.335938 366.667969 Z M 485.398438 366.667969"/><path fill="#FFEDD1" d="M 491.394531 372.703125 L 491.394531 372.527344 L 491.335938 372.527344 L 491.335938 378.441406 L 497.257812 378.441406 L 497.257812 372.703125 Z M 491.394531 372.703125"/><g clip-path="url(#b)"><path fill="#1A1A1A" d="M 503.632812 377.929688 L 503.632812 372.496094 L 497.578125 372.496094 L 497.578125 366.449219 L 491.527344 366.449219 L 491.527344 360.421875 L 318.832031 360.421875 L 318.832031 366.46875 L 313.394531 366.46875 L 313.394531 372.511719 L 307.339844 372.511719 L 307.339844 377.929688 L 301.300781 377.929688 L 301.300781 432.09375 L 307.355469 432.09375 L 307.355469 438.140625 L 313.40625 438.140625 L 313.40625 443.570312 L 318.832031 443.570312 L 318.832031 449.617188 L 491.539062 449.617188 L 491.539062 443.570312 L 497.59375 443.570312 L 497.59375 438.128906 L 503.644531 438.128906 L 503.644531 432.085938 L 509.050781 432.085938 L 509.050781 377.929688 Z M 502.601562 384.183594 L 502.601562 431.671875 L 497.164062 431.671875 L 497.164062 437.113281 L 491.113281 437.113281 L 491.113281 443.15625 L 319.855469 443.15625 L 319.855469 437.113281 L 313.804688 437.113281 L 313.804688 431.671875 L 307.75 431.671875 L 307.75 378.953125 L 313.804688 378.953125 L 313.804688 372.910156 L 319.855469 372.910156 L 319.855469 366.863281 L 491.121094 366.863281 L 491.121094 372.910156 L 497.175781 372.910156 L 497.175781 378.953125 L 502.613281 378.953125 Z M 502.601562 384.183594"/></g><g fill="#FFEDD1"><g><g><path d="M 1.699219 0 L 6.949219 0 L 6.949219 -1.902344 L 5.707031 -1.902344 L 5.707031 -5.851562 L 8.996094 -5.851562 C 14.558594 -5.851562 14.585938 -9.6875 14.585938 -11.15625 C 14.585938 -14.960938 11.878906 -15.855469 9.65625 -15.855469 L 1.585938 -15.855469 L 1.585938 -13.953125 L 2.910156 -13.953125 L 2.910156 -1.902344 L 1.699219 -1.902344 Z M 5.707031 -8.160156 L 5.707031 -13.433594 L 8.648438 -13.433594 C 9.253906 -13.433594 11.792969 -13.433594 11.792969 -11.070312 C 11.792969 -9.773438 11.761719 -8.160156 8.792969 -8.160156 Z M 5.707031 -8.160156" transform="translate(366.743 413.224)"/></g></g></g><g fill="#FFEDD1"><g><g><path d="M 1.585938 0 L 14.269531 0 L 14.269531 -3.429688 L 12.078125 -3.429688 L 12.078125 -2.046875 L 5.707031 -2.046875 L 5.707031 -13.953125 L 6.917969 -13.953125 L 6.917969 -15.855469 L 1.699219 -15.855469 L 1.699219 -13.953125 L 2.910156 -13.953125 L 2.910156 -2.046875 L 1.585938 -2.046875 Z M 1.585938 0" transform="translate(385.737 413.224)"/></g></g></g><g fill="#FFEDD1"><g><g><path d="M 0.863281 0 L 6.113281 0 L 6.113281 -1.902344 L 5.015625 -1.902344 L 6.023438 -5.21875 L 11.734375 -5.21875 L 12.742188 -1.902344 L 11.675781 -1.902344 L 11.675781 0 L 16.921875 0 L 16.921875 -1.902344 L 15.828125 -1.902344 L 11.097656 -15.855469 L 4.785156 -15.855469 L 4.785156 -13.953125 L 6.023438 -13.953125 L 1.929688 -1.902344 L 0.863281 -1.902344 Z M 6.746094 -7.496094 L 8.878906 -13.925781 L 11.011719 -7.496094 Z M 6.746094 -7.496094" transform="translate(404.269 413.224)"/></g></g></g><g fill="#FFEDD1"><g><g><path d="M 6.285156 0 L 11.503906 0 L 11.503906 -1.902344 L 10.292969 -1.902344 L 10.292969 -6.140625 L 15.566406 -13.953125 L 16.921875 -13.953125 L 16.921875 -15.855469 L 10.78125 -15.855469 L 10.78125 -13.953125 L 12.253906 -13.953125 L 8.90625 -8.90625 L 5.5625 -13.953125 L 7.003906 -13.953125 L 7.003906 -15.855469 L 0.863281 -15.855469 L 0.863281 -13.953125 L 2.21875 -13.953125 L 7.496094 -6.113281 L 7.496094 -1.902344 L 6.285156 -1.902344 Z M 6.285156 0" transform="translate(425.452 413.224)"/></g></g></g></svg>