<?xml version="1.0" encoding="UTF-8"?>
<svg xmlns="http://www.w3.org/2000/svg" xmlns:xlink="http://www.w3.org/1999/xlink" width="120px" height="70px" viewBox="79 85 45 31" version="1.1">
<defs>
<clipPath id="clip1">
  <path d="M 75 90.070312 L 128.242188 90.070312 L 128.242188 112.777344 L 75 112.777344 Z M 75 90.070312 "/>
</clipPath>
<clipPath id="clip2">
  <path d="M 74.851562 90.070312 L 128.242188 90.070312 L 128.242188 112.917969 L 74.851562 112.917969 Z M 74.851562 90.070312 "/>
</clipPath>
</defs>
<g id="surface1">
<g clip-path="url(#clip1)" clip-rule="nonzero">
<path style=" stroke:none;fill-rule:nonzero;fill:rgb(50.588235%,66.27451%,41.176471%);fill-opacity:1;" d="M 128.078125 94.664062 L 128.078125 94.570312 L 126.742188 94.570312 L 126.742188 93.285156 L 126.691406 93.285156 L 126.691406 93.1875 L 125.195312 93.1875 L 125.195312 91.75 L 125.140625 91.75 L 125.140625 91.65625 L 123.648438 91.65625 L 123.648438 90.21875 L 123.59375 90.21875 L 123.59375 90.125 L 79.492188 90.125 L 79.492188 91.65625 L 78.097656 91.65625 L 78.097656 93.144531 L 78.0625 93.144531 L 78.0625 93.1875 L 76.550781 93.1875 L 76.550781 94.570312 L 75.003906 94.570312 L 75.003906 108.21875 L 75.054688 108.21875 L 75.054688 108.316406 L 76.550781 108.316406 L 76.550781 109.75 L 76.605469 109.75 L 76.605469 109.84375 L 78.097656 109.84375 L 78.097656 111.132812 L 78.148438 111.132812 L 78.148438 111.230469 L 79.492188 111.230469 L 79.492188 112.667969 L 79.542969 112.667969 L 79.542969 112.761719 L 123.648438 112.761719 L 123.648438 111.230469 L 123.632812 111.230469 L 123.632812 111.132812 L 123.648438 111.132812 L 123.648438 111.230469 L 125.203125 111.230469 L 125.203125 109.847656 L 126.75 109.847656 L 126.75 108.320312 L 128.140625 108.320312 L 128.140625 94.664062 Z M 123.59375 109.777344 Z M 125.148438 108.21875 L 125.148438 108.175781 Z M 125.148438 108.21875 "/>
<path style=" stroke:none;fill-rule:nonzero;fill:rgb(50.588235%,66.27451%,41.176471%);fill-opacity:1;" d="M 126.703125 94.664062 L 126.703125 93.285156 L 125.148438 93.285156 L 125.148438 94.734375 L 125.101562 94.734375 L 125.101562 93.285156 L 125.148438 93.285156 L 125.148438 91.757812 L 123.59375 91.757812 L 123.59375 93.238281 L 123.578125 93.238281 L 123.578125 91.757812 L 123.597656 91.757812 L 123.597656 90.21875 L 79.492188 90.21875 L 79.492188 91.757812 L 78.097656 91.757812 L 78.097656 93.238281 L 78.0625 93.238281 L 78.0625 93.285156 L 76.550781 93.285156 L 76.550781 94.664062 L 75.003906 94.664062 L 75.003906 108.296875 L 76.554688 108.296875 L 76.554688 108.257812 L 76.609375 108.257812 L 76.609375 108.296875 L 76.554688 108.296875 L 76.554688 109.828125 L 78.109375 109.828125 L 78.109375 111.207031 L 79.492188 111.207031 L 79.492188 112.738281 L 123.605469 112.738281 L 123.605469 111.207031 L 123.589844 111.207031 L 123.589844 109.855469 L 123.605469 109.855469 L 123.605469 111.207031 L 125.160156 111.207031 L 125.160156 109.828125 L 126.710938 109.828125 L 126.710938 108.296875 L 128.105469 108.296875 L 128.105469 94.664062 Z M 125.101562 109.765625 L 125.101562 108.421875 L 125.148438 108.421875 L 125.148438 109.765625 Z M 126.542969 108.371094 L 125.152344 108.371094 L 125.152344 108.328125 L 126.542969 108.328125 Z M 126.542969 108.371094 "/>
</g>
<path style=" stroke:none;fill-rule:nonzero;fill:rgb(50.588235%,66.27451%,41.176471%);fill-opacity:1;" d="M 90.183594 96.199219 L 91.703125 96.199219 L 91.703125 97.71875 L 90.183594 97.71875 Z M 87.140625 96.199219 L 88.660156 96.199219 L 88.660156 97.71875 L 87.140625 97.71875 Z M 87.140625 96.199219 "/>
<path style=" stroke:none;fill-rule:nonzero;fill:rgb(50.588235%,66.27451%,41.176471%);fill-opacity:1;" d="M 85.621094 94.683594 L 84.101562 94.683594 L 84.101562 106.816406 L 85.621094 106.816406 L 85.621094 96.199219 L 87.140625 96.199219 L 87.140625 94.683594 Z M 91.703125 94.683594 L 91.703125 96.199219 L 93.222656 96.199219 L 93.222656 106.816406 L 94.742188 106.816406 L 94.742188 94.683594 Z M 88.660156 99.230469 L 88.660156 100.75 L 90.179688 100.75 L 90.179688 97.71875 L 88.660156 97.71875 Z M 116.03125 105.300781 L 114.511719 105.300781 L 114.511719 106.816406 L 119.074219 106.816406 L 119.074219 105.300781 Z M 116.03125 105.300781 "/>
<path style=" stroke:none;fill-rule:nonzero;fill:rgb(50.588235%,66.27451%,41.176471%);fill-opacity:1;" d="M 119.074219 94.683594 L 119.074219 105.300781 L 120.59375 105.300781 L 120.59375 94.683594 Z M 99.304688 94.683594 L 96.265625 94.683594 L 96.265625 106.816406 L 102.34375 106.816406 L 102.34375 105.300781 L 97.785156 105.300781 L 97.785156 100.75 L 100.824219 100.75 L 100.824219 99.234375 L 97.785156 99.234375 L 97.785156 96.199219 L 102.34375 96.199219 L 102.34375 94.683594 Z M 114.507812 102.265625 L 114.507812 94.683594 L 112.988281 94.683594 L 112.988281 105.300781 L 114.507812 105.300781 Z M 109.949219 96.195312 L 109.949219 99.230469 L 108.429688 99.230469 L 108.429688 97.714844 L 106.90625 97.714844 L 106.90625 96.195312 L 105.386719 96.195312 L 105.386719 94.679688 L 103.867188 94.679688 L 103.867188 106.816406 L 105.386719 106.816406 L 105.386719 99.230469 L 106.90625 99.230469 L 106.90625 100.746094 L 108.429688 100.746094 L 108.429688 102.265625 L 109.949219 102.265625 L 109.949219 106.816406 L 111.46875 106.816406 L 111.46875 94.679688 L 109.949219 94.679688 Z M 109.949219 96.195312 "/>
<path style=" stroke:none;fill-rule:nonzero;fill:rgb(50.588235%,66.27451%,41.176471%);fill-opacity:1;" d="M 109.972656 97.71875 L 109.972656 94.660156 L 108.402344 94.660156 L 108.402344 99.257812 L 109.972656 99.257812 Z M 106.882812 102.289062 L 108.40625 102.289062 L 108.40625 106.839844 L 109.972656 106.839844 L 109.972656 102.242188 L 108.453125 102.242188 L 108.453125 100.722656 L 106.929688 100.722656 L 106.929688 99.207031 L 105.363281 99.207031 L 105.363281 100.773438 L 106.882812 100.773438 Z M 119.097656 103.78125 L 119.097656 94.660156 L 117.527344 94.660156 L 117.527344 105.324219 L 119.097656 105.324219 Z M 103.890625 105.300781 L 103.890625 94.65625 L 102.320312 94.65625 L 102.320312 106.839844 L 103.890625 106.839844 Z M 112.964844 106.839844 L 114.535156 106.839844 L 114.535156 105.277344 L 113.011719 105.277344 L 113.011719 94.660156 L 111.445312 94.660156 L 111.445312 105.324219 L 112.964844 105.324219 Z M 84.125 105.300781 L 84.125 94.65625 L 82.554688 94.65625 L 82.554688 106.839844 L 84.125 106.839844 Z M 84.125 105.300781 "/>
<path style=" stroke:none;fill-rule:nonzero;fill:rgb(50.588235%,66.27451%,41.176471%);fill-opacity:1;" d="M 125.234375 94.738281 L 125.234375 94.660156 L 125.140625 94.660156 L 125.140625 108.308594 L 123.621094 108.308594 L 123.621094 109.828125 L 79.566406 109.828125 L 79.566406 111.335938 L 123.667969 111.335938 L 123.667969 109.90625 L 123.6875 109.90625 L 123.6875 109.820312 L 125.5625 109.820312 L 125.5625 108.597656 L 126.628906 108.597656 L 126.628906 94.738281 Z M 87.117188 99.230469 L 87.117188 100.773438 L 88.6875 100.773438 L 88.6875 97.691406 L 87.164062 97.691406 L 87.164062 96.175781 L 85.597656 96.175781 L 85.597656 97.742188 L 87.117188 97.742188 Z M 87.117188 99.230469 "/>
<path style=" stroke:none;fill-rule:nonzero;fill:rgb(50.588235%,66.27451%,41.176471%);fill-opacity:1;" d="M 93.246094 105.300781 L 93.246094 96.175781 L 91.679688 96.175781 L 91.679688 106.839844 L 93.246094 106.839844 Z M 96.289062 105.300781 L 96.289062 94.65625 L 94.71875 94.65625 L 94.71875 106.839844 L 96.289062 106.839844 Z M 96.289062 105.300781 "/>
<path style=" stroke:none;fill-rule:nonzero;fill:rgb(100%,92.941176%,81.960784%);fill-opacity:1;" d="M 76.5 96.152344 L 76.5 96.195312 L 78.015625 96.195312 L 78.015625 94.757812 L 76.5 94.757812 Z M 122.128906 91.664062 L 79.605469 91.664062 L 79.605469 93.210938 L 78.054688 93.210938 L 78.054688 94.683594 L 81.058594 94.683594 L 81.058594 93.167969 L 123.652344 93.167969 L 123.652344 91.664062 Z M 122.128906 91.664062 "/>
<path style=" stroke:none;fill-rule:nonzero;fill:rgb(100%,92.941176%,81.960784%);fill-opacity:1;" d="M 123.667969 93.210938 L 123.667969 93.167969 L 123.652344 93.167969 L 123.652344 94.683594 L 125.171875 94.683594 L 125.171875 93.210938 Z M 123.667969 93.210938 "/>
<g clip-path="url(#clip2)" clip-rule="nonzero">
<path style=" stroke:none;fill-rule:nonzero;fill:rgb(10.196078%,10.196078%,10.196078%);fill-opacity:1;" d="M 126.808594 94.550781 L 126.808594 93.160156 L 125.253906 93.160156 L 125.253906 91.609375 L 123.703125 91.609375 L 123.703125 90.066406 L 79.394531 90.066406 L 79.394531 91.613281 L 78 91.613281 L 78 93.164062 L 76.449219 93.164062 L 76.449219 94.550781 L 74.898438 94.550781 L 74.898438 108.425781 L 76.453125 108.425781 L 76.453125 109.976562 L 78.003906 109.976562 L 78.003906 111.367188 L 79.394531 111.367188 L 79.394531 112.917969 L 123.703125 112.917969 L 123.703125 111.367188 L 125.257812 111.367188 L 125.257812 109.972656 L 126.8125 109.972656 L 126.8125 108.425781 L 128.195312 108.425781 L 128.195312 94.550781 Z M 126.542969 96.152344 L 126.542969 108.320312 L 125.148438 108.320312 L 125.148438 109.710938 L 123.59375 109.710938 L 123.59375 111.261719 L 79.660156 111.261719 L 79.660156 109.710938 L 78.105469 109.710938 L 78.105469 108.320312 L 76.554688 108.320312 L 76.554688 94.8125 L 78.105469 94.8125 L 78.105469 93.265625 L 79.660156 93.265625 L 79.660156 91.714844 L 123.597656 91.714844 L 123.597656 93.265625 L 125.152344 93.265625 L 125.152344 94.8125 L 126.546875 94.8125 Z M 126.542969 96.152344 "/>
</g>
<path style=" stroke:none;fill-rule:nonzero;fill:rgb(100%,100%,100%);fill-opacity:1;" d="M 90.15625 104.144531 L 90.5 104.144531 C 90.585938 104.144531 90.695312 104.132812 90.835938 104.128906 C 90.96875 104.117188 91.085938 104.101562 91.171875 104.074219 C 91.253906 104.058594 91.347656 104.027344 91.464844 103.984375 C 91.574219 103.949219 91.65625 103.902344 91.722656 103.832031 C 91.792969 103.773438 91.851562 103.699219 91.917969 103.613281 C 91.984375 103.53125 92.027344 103.421875 92.058594 103.296875 C 92.089844 103.160156 92.101562 103.023438 92.101562 102.886719 C 92.101562 102.652344 92 102.441406 91.808594 102.242188 C 91.597656 102.039062 91.355469 101.878906 91.085938 101.761719 C 90.8125 101.640625 90.53125 101.523438 90.25 101.421875 C 90.003906 101.332031 89.765625 101.230469 89.539062 101.109375 C 89.335938 101.007812 89.242188 100.898438 89.242188 100.800781 C 89.242188 100.714844 89.253906 100.640625 89.269531 100.589844 C 89.285156 100.539062 89.320312 100.488281 89.386719 100.429688 C 89.453125 100.371094 89.5625 100.332031 89.714844 100.304688 C 89.863281 100.28125 90.074219 100.261719 90.324219 100.261719 C 90.375 100.261719 90.507812 100.28125 90.734375 100.304688 C 90.953125 100.332031 91.128906 100.355469 91.246094 100.378906 L 91.246094 100.808594 L 92.019531 100.808594 L 92.019531 99.75 C 91.363281 99.550781 90.792969 99.449219 90.316406 99.449219 C 89.664062 99.449219 89.160156 99.558594 88.824219 99.761719 C 88.480469 99.96875 88.3125 100.3125 88.3125 100.800781 C 88.3125 101.066406 88.40625 101.308594 88.605469 101.519531 C 88.804688 101.734375 89.046875 101.90625 89.320312 102.015625 C 89.59375 102.132812 89.875 102.242188 90.15625 102.339844 C 90.402344 102.429688 90.644531 102.53125 90.878906 102.652344 C 91.070312 102.753906 91.171875 102.871094 91.171875 102.988281 C 91.171875 103.085938 91.136719 103.171875 91.085938 103.230469 C 91.027344 103.296875 90.945312 103.339844 90.828125 103.363281 C 90.710938 103.386719 90.609375 103.40625 90.527344 103.40625 C 90.441406 103.414062 90.324219 103.414062 90.183594 103.414062 C 89.761719 103.414062 89.402344 103.328125 89.117188 103.15625 L 89.117188 102.769531 L 88.347656 102.769531 L 88.347656 103.625 C 88.515625 103.773438 88.765625 103.902344 89.101562 104 C 89.4375 104.101562 89.789062 104.144531 90.15625 104.144531 Z M 94.925781 104.101562 L 96.542969 104.101562 L 96.542969 103.414062 L 96.199219 103.414062 L 96.199219 100.304688 L 96.9375 100.304688 L 96.9375 100.722656 L 97.714844 100.722656 L 97.714844 99.492188 L 93.71875 99.492188 L 93.71875 100.722656 L 94.5 100.722656 L 94.5 100.304688 L 95.269531 100.304688 L 95.269531 103.414062 L 94.925781 103.414062 Z M 99.125 104.101562 L 100.761719 104.101562 L 100.761719 103.414062 L 100.433594 103.414062 L 100.695312 102.636719 L 102.21875 102.636719 L 102.480469 103.414062 L 102.160156 103.414062 L 102.160156 104.101562 L 103.792969 104.101562 L 103.792969 103.414062 L 103.460938 103.414062 L 102.136719 99.492188 L 100.082031 99.492188 L 100.082031 100.179688 L 100.550781 100.179688 L 99.453125 103.414062 L 99.125 103.414062 Z M 100.96875 101.839844 L 101.457031 100.390625 L 101.941406 101.839844 Z M 105.359375 104.101562 L 106.988281 104.101562 L 106.988281 103.414062 L 106.636719 103.414062 L 106.636719 102.457031 L 107.238281 102.457031 L 108.261719 104.101562 L 109.316406 104.101562 L 109.316406 103.339844 L 108.832031 103.339844 C 108.757812 103.238281 108.65625 103.070312 108.519531 102.84375 C 108.386719 102.625 108.285156 102.46875 108.238281 102.382812 C 108.898438 102.199219 109.234375 101.703125 109.234375 100.890625 C 109.234375 100.378906 109.089844 100.019531 108.804688 99.8125 C 108.519531 99.601562 108.167969 99.492188 107.765625 99.492188 L 105.328125 99.492188 L 105.328125 100.179688 L 105.703125 100.179688 L 105.703125 103.414062 L 105.359375 103.414062 Z M 106.636719 101.664062 L 106.636719 100.304688 L 107.480469 100.304688 C 108.027344 100.304688 108.304688 100.515625 108.304688 100.917969 C 108.304688 101.023438 108.296875 101.109375 108.285156 101.175781 C 108.269531 101.242188 108.246094 101.328125 108.195312 101.410156 C 108.144531 101.496094 108.070312 101.5625 107.960938 101.605469 C 107.84375 101.644531 107.699219 101.664062 107.523438 101.664062 Z M 112.015625 104.101562 L 113.632812 104.101562 L 113.632812 103.414062 L 113.289062 103.414062 L 113.289062 100.304688 L 114.027344 100.304688 L 114.027344 100.722656 L 114.804688 100.722656 L 114.804688 99.492188 L 110.808594 99.492188 L 110.808594 100.722656 L 111.589844 100.722656 L 111.589844 100.304688 L 112.359375 100.304688 L 112.359375 103.414062 L 112.015625 103.414062 Z M 112.015625 104.101562 "/>
</g>
</svg>
