<svg version="1.0" viewBox="0 0 810 810" xmlns="http://www.w3.org/2000/svg">
  <defs>
    <clipPath id="a">
      <path d="M299 359.4h212.71v90.602H299z"/>
    </clipPath>
    <clipPath id="b">
      <path d="M298.67 359.4h213.04v91.164H298.67z"/>
    </clipPath>
  </defs>
  <g clip-path="url(#a)" fill="#81A969">
    <path d="M511.05 377.73v-.379h-5.328v-5.133h-.207v-.383h-5.965v-5.734h-.215v-.379h-5.96v-5.734h-.216v-.383H317.18v6.117h-5.558v5.938h-.145v.175h-6.027v5.516h-6.176v54.457h.211v.383h5.965v5.726h.21v.383h5.962v5.133h.2v.387h5.358v5.738h.207v.379h175.99v-6.117h-.066v-.387h.066v.387h6.196v-5.508h6.172v-6.098h5.558V377.73zm-17.891 60.297zm6.195-6.219v-.164z"/>
    <path d="M505.56 377.72v-5.5h-6.195v5.79h-.192v-5.79h.192v-6.098h-6.2v5.914h-.066v-5.914h.067v-6.129h-175.98v6.13h-5.56v5.913h-.14v.184h-6.035v5.5h-6.176v54.402h6.196v-.16h.214v.16h-.214v6.113h6.195v5.5h5.52v6.114h176.02v-6.114h-.067v-5.398h.066v5.398h6.196v-5.5h6.199v-6.113h5.555V377.72zm-6.39 60.254v-5.348h.187v5.348zm5.757-5.562h-5.547v-.165h5.547z"/>
  </g>
  <path d="M359.84 383.85h6.074v6.055h-6.074zm-12.14 0h6.07v6.055h-6.07z" fill="#81A969"/>
  <path d="M341.64 377.8h-6.063v48.418h6.063v-42.371h6.066V377.8zm24.27 0v6.047h6.063v42.37h6.062V377.8zm-12.14 18.15V402h6.063v-12.093h-6.063zm109.21 24.21h-6.063v6.05h18.204v-6.05z" fill="#81A969"/>
  <path d="M475.12 377.8v42.367h6.063V377.8zm-78.88 0h-12.133v48.418h24.266v-6.05H390.17v-18.165h12.137v-6.05H390.17v-12.106h18.203v-6.046zm60.67 30.26v-30.262h-6.07v42.367h6.07zm-18.2-24.22v12.105h-6.066v-6.043h-6.075v-6.063h-6.062v-6.046h-6.063v48.418h6.063v-30.266h6.062v6.05h6.075v6.059h6.066v18.156h6.066v-48.418h-6.066z" fill="#81A969"/>
  <path d="M438.8 389.91v-12.203h-6.258v18.34h6.258zm-12.32 18.24h6.07v18.156h6.258v-18.344h-6.066v-6.059h-6.07v-6.05h-6.255v6.242h6.063zm48.73 5.96v-36.402h-6.262v42.555h6.262zm-60.67 6.05v-42.461h-6.262v48.605h6.262zm36.21 6.15h6.258v-6.242h-6.067v-42.363h-6.257v42.555h6.066zm-115.08-6.15v-42.461h-6.258v48.605h6.258z" fill="#81A969"/>
  <path d="M499.71 378.02v-.313h-.387v54.461h-6.062v6.055H317.48v6.028h175.97v-5.707h.082v-.34h7.48v-4.89h4.262V378.02zm-152.1 17.93v6.148h6.262V389.81h-6.074v-6.054h-6.258V390h6.07z" fill="#81A969"/>
  <path d="M372.07 420.16v-36.41h-6.25v42.555h6.25zm12.13 0v-42.461h-6.262v48.605h6.262z" fill="#81A969"/>
  <path d="M305.25 383.66v.18h6.047v-5.74h-6.047zm182.06-17.9H317.64v6.172h-6.195v5.867h11.996v-6.047h169.95v-5.992z" fill="#FFEDD1"/>
  <path d="M493.45 371.93v-.18h-.063v6.047h6.063v-5.867z" fill="#FFEDD1"/>
  <g clip-path="url(#b)">
    <path d="M505.98 377.27v-5.555h-6.195v-6.183h-6.196v-6.16H316.8v6.18h-5.566v6.179h-6.195v5.539h-6.184v55.371h6.2v6.18h6.195v5.55h5.55v6.184h176.8v-6.183h6.2v-5.563h6.195v-6.18h5.531V377.27zm-1.05 6.39v48.548h-5.571v5.562h-6.195v6.18h-175.31v-6.18h-6.196v-5.562h-6.199v-53.891h6.2v-6.18h6.195v-6.18h175.32v6.18h6.195v6.18h5.566z" fill="#1A1A1A"/>
  </g>
  <path d="M359.743 415.548h1.371c.332 0 .77-.035 1.336-.066.535-.036 1.004-.102 1.336-.204.336-.066.703-.199 1.172-.367.434-.133.77-.332 1.035-.601.27-.235.504-.535.77-.871.27-.332.437-.766.57-1.27a7.872 7.872 0 0 0 .168-1.637c0-.937-.402-1.773-1.172-2.574a9.737 9.737 0 0 0-2.875-1.906 51.668 51.668 0 0 0-3.344-1.371 21.761 21.761 0 0 1-2.843-1.238c-.801-.403-1.172-.836-1.172-1.239 0-.336.035-.636.101-.836s.203-.402.469-.636c.27-.235.703-.399 1.305-.5.601-.102 1.437-.168 2.441-.168.2 0 .734.066 1.637.168.87.101 1.574.199 2.043.3v1.707h3.074v-4.214c-2.61-.805-4.883-1.203-6.79-1.203-2.605 0-4.612.433-5.952 1.238-1.371.836-2.04 2.207-2.04 4.144 0 1.07.368 2.04 1.173 2.875a7.826 7.826 0 0 0 2.843 1.973 54.87 54.87 0 0 0 3.344 1.305 24.76 24.76 0 0 1 2.875 1.238c.77.402 1.168.871 1.168 1.336 0 .402-.133.738-.332.973-.234.265-.57.433-1.039.535-.465.097-.867.164-1.203.164-.332.035-.8.035-1.371.035-1.672 0-3.11-.336-4.246-1.035v-1.54h-3.078v3.41c.672.602 1.675 1.106 3.011 1.505 1.336.402 2.743.57 4.215.57zm19.027-.168h6.453v-2.742h-1.37v-12.406h2.94v1.672h3.11v-4.914h-15.949v4.914h3.11v-1.672h3.078v12.406h-1.372zm16.758 0h6.523v-2.742h-1.304l1.035-3.11h6.086l1.039 3.11h-1.274v2.742h6.524v-2.742h-1.34l-5.281-15.648h-8.195v2.742h1.875l-4.383 12.906h-1.305zm7.36-9.027 1.937-5.786 1.941 5.786zm17.519 9.027h6.488v-2.742h-1.402v-3.813h2.406l4.082 6.555h4.21v-3.043h-1.937c-.3-.402-.703-1.07-1.238-1.973-.535-.87-.938-1.504-1.137-1.84 2.64-.734 3.98-2.707 3.98-5.953 0-2.039-.57-3.476-1.706-4.312-1.137-.836-2.543-1.27-4.149-1.27h-9.73v2.743h1.504v12.906h-1.371zm5.086-9.73v-5.418h3.375c2.175 0 3.277.835 3.277 2.44 0 .434-.031.77-.067 1.036-.066.27-.167.602-.367.938-.199.336-.5.601-.937.77-.469.167-1.035.234-1.738.234zm21.467 9.73h6.453v-2.742h-1.37v-12.406h2.94v1.672h3.11v-4.914h-15.949v4.914h3.11v-1.672h3.078v12.406h-1.372z" fill="#FFF"/>
</svg>