<svg xmlns="http://www.w3.org/2000/svg" width="810" viewBox="0 0 810 810" height="810" version="1.0"><defs><clipPath id="a"><path d="M 370.023438 329 L 377 329 L 377 342 L 370.023438 342 Z M 370.023438 329"/></clipPath><clipPath id="b"><path d="M 376 277.605469 L 439.773438 277.605469 L 439.773438 532.605469 L 376 532.605469 Z M 376 277.605469"/></clipPath><clipPath id="c"><path d="M 387 277.605469 L 423 277.605469 L 423 284 L 387 284 Z M 387 277.605469"/></clipPath><clipPath id="d"><path d="M 370.023438 329 L 377 329 L 377 342 L 370.023438 342 Z M 370.023438 329"/></clipPath><clipPath id="e"><path d="M 433 329 L 439.773438 329 L 439.773438 342 L 433 342 Z M 433 329"/></clipPath><clipPath id="f"><path d="M 393 526 L 417 526 L 417 532.605469 L 393 532.605469 Z M 393 526"/></clipPath></defs><g clip-path="url(#a)"><path fill="#25314F" d="M 376.121094 329.722656 L 370.347656 329.722656 L 370.347656 341.296875 L 376.121094 341.296875 Z M 376.121094 329.722656"/></g><g clip-path="url(#b)"><path fill="#25314F" d="M 433.644531 329.769531 L 433.644531 323.976562 L 422.183594 323.976562 L 422.183594 318.179688 L 427.917969 318.179688 L 427.917969 283.417969 L 422.183594 283.417969 L 422.183594 277.625 L 387.816406 277.625 L 387.816406 283.417969 L 382.085938 283.417969 L 382.085938 318.179688 L 387.816406 318.179688 L 387.816406 323.976562 L 376.363281 323.976562 L 376.363281 329.769531 L 387.816406 329.769531 L 387.816406 335.59375 L 382.085938 335.59375 L 382.085938 341.390625 L 379.878906 341.390625 L 382.085938 347.300781 L 382.085938 347.183594 L 387.816406 347.183594 L 387.816406 515.1875 L 393.546875 515.1875 L 393.546875 520.972656 L 399.277344 520.972656 L 399.277344 526.765625 L 393.546875 526.765625 L 393.546875 532.566406 L 416.460938 532.566406 L 416.460938 526.765625 L 422.183594 526.765625 L 422.183594 520.972656 L 427.917969 520.972656 L 427.917969 515.1875 L 433.644531 515.1875 L 433.644531 341.363281 L 439.375 341.363281 L 439.375 329.769531 Z M 393.546875 312.386719 L 387.816406 312.386719 L 387.816406 306.59375 L 393.546875 306.59375 Z M 393.546875 295.007812 L 393.546875 300.800781 L 387.816406 300.800781 L 387.816406 289.210938 L 393.546875 289.210938 Z M 393.546875 295.007812"/></g><path fill="#25314F" d="M 404.910156 521.054688 L 399.140625 521.054688 L 399.140625 526.847656 L 416.460938 526.847656 L 416.460938 521.054688 Z M 404.910156 521.054688"/><path fill="#25314F" d="M 428.007812 329.816406 L 428.007812 335.609375 L 422.230469 335.609375 L 422.230469 341.410156 L 433.777344 341.410156 L 433.777344 329.816406 Z M 428.007812 329.816406"/><path fill="#25314F" d="M 422.140625 353 L 422.140625 364.496094 L 410.59375 364.496094 L 410.59375 370.296875 L 399.050781 370.296875 L 399.050781 376.089844 L 393.273438 376.089844 L 393.273438 387.859375 L 422.140625 387.859375 L 422.140625 515.261719 L 416.460938 515.261719 L 416.460938 521.054688 L 422.230469 521.054688 L 422.230469 515.351562 L 428.097656 515.351562 L 428.097656 347.113281 L 422.140625 347.113281 Z M 422.140625 353"/><path fill="#25314F" d="M 410.683594 387.769531 L 410.683594 515.261719 L 393.363281 515.261719 L 393.363281 521.054688 L 416.460938 521.054688 L 416.460938 515.261719 L 422.230469 515.261719 L 422.230469 387.769531 Z M 410.683594 387.769531"/><path fill="#25314F" d="M 416.460938 283.457031 L 387.589844 283.457031 L 387.589844 289.25 L 393.363281 289.25 L 393.363281 300.84375 L 387.589844 300.84375 L 387.589844 306.636719 L 393.363281 306.636719 L 393.363281 312.433594 L 387.589844 312.433594 L 387.589844 318.226562 L 393.363281 318.226562 L 393.363281 324.023438 L 416.460938 324.023438 L 416.460938 318.226562 L 422.230469 318.226562 L 422.230469 283.457031 Z M 416.460938 283.457031"/><path fill="#FFEDD1" d="M 410.683594 347.082031 L 387.472656 347.082031 L 387.472656 387.886719 L 393.480469 387.886719 L 393.480469 376.296875 L 399.257812 376.296875 L 399.257812 370.503906 L 410.800781 370.503906 L 410.800781 364.703125 L 422.347656 364.703125 L 422.347656 347.082031 Z M 410.683594 347.082031"/><path fill="#FFEDD1" d="M 422.230469 329.699219 L 387.472656 329.699219 L 387.472656 335.492188 L 381.695312 335.492188 L 381.695312 341.527344 L 422.347656 341.527344 L 422.347656 335.730469 L 428.125 335.730469 L 428.125 329.699219 Z M 422.230469 329.699219"/><path fill="#8AC3CF" d="M 387.589844 387.769531 L 410.683594 387.769531 L 410.683594 515.285156 L 387.589844 515.285156 Z M 387.589844 387.769531"/><path fill="#10173D" d="M 387.589844 306.636719 L 387.589844 283.457031 L 381.816406 283.457031 L 381.816406 318.226562 L 387.589844 318.226562 Z M 387.589844 306.636719"/><path fill="#10173D" d="M 422.230469 295.050781 L 422.230469 318.226562 L 428.007812 318.226562 L 428.007812 283.457031 L 422.230469 283.457031 Z M 422.230469 295.050781"/><path fill="#10173D" d="M 387.589844 329.816406 L 433.777344 329.816406 L 433.777344 324.023438 L 422.230469 324.023438 L 422.230469 318.226562 L 416.460938 318.226562 L 416.460938 324.023438 L 393.363281 324.023438 L 393.363281 318.226562 L 387.589844 318.226562 L 387.589844 324.023438 L 376.042969 324.023438 L 376.042969 329.816406 Z M 387.589844 329.816406"/><g clip-path="url(#c)"><path fill="#10173D" d="M 399.140625 283.457031 L 422.230469 283.457031 L 422.230469 277.664062 L 387.589844 277.664062 L 387.589844 283.457031 Z M 399.140625 283.457031"/></g><g clip-path="url(#d)"><path fill="#10173D" d="M 376.042969 329.816406 L 370.273438 329.816406 L 370.273438 341.410156 L 376.042969 341.410156 Z M 376.042969 329.816406"/></g><path fill="#10173D" d="M 422.230469 341.410156 L 376.042969 341.410156 L 376.042969 515.261719 L 381.816406 515.261719 L 381.816406 347.203125 L 428.007812 347.203125 L 428.007812 515.261719 L 433.777344 515.261719 L 433.777344 341.410156 Z M 422.230469 341.410156"/><path fill="#10173D" d="M 416.460938 521.054688 L 422.230469 521.054688 L 422.230469 526.847656 L 416.460938 526.847656 Z M 416.460938 521.054688"/><path fill="#10173D" d="M 422.230469 515.261719 L 428.007812 515.261719 L 428.007812 521.054688 L 422.230469 521.054688 Z M 422.230469 515.261719"/><g clip-path="url(#e)"><path fill="#10173D" d="M 433.777344 329.816406 L 433.777344 341.410156 L 439.550781 341.410156 L 439.550781 329.816406 Z M 433.777344 329.816406"/></g><g clip-path="url(#f)"><path fill="#10173D" d="M 404.910156 526.847656 L 393.363281 526.847656 L 393.363281 532.648438 L 416.460938 532.648438 L 416.460938 526.847656 Z M 404.910156 526.847656"/></g><path fill="#10173D" d="M 387.589844 521.054688 L 393.363281 521.054688 L 393.363281 526.847656 L 387.589844 526.847656 Z M 387.589844 521.054688"/><path fill="#10173D" d="M 381.816406 515.261719 L 387.589844 515.261719 L 387.589844 521.054688 L 381.816406 521.054688 Z M 381.816406 515.261719"/></svg>