<svg xmlns="http://www.w3.org/2000/svg" width="810" viewBox="0 0 810 810" height="810" version="1.0"><defs><clipPath id="a"><path d="M 305 363.71875 L 505.867188 363.71875 L 505.867188 446.542969 L 305 446.542969 Z M 305 363.71875"/></clipPath><clipPath id="b"><path d="M 304.476562 363.71875 L 505.867188 363.71875 L 505.867188 446.542969 L 304.476562 446.542969 Z M 304.476562 363.71875"/></clipPath></defs><g clip-path="url(#a)" fill="#81A969"><path d="M 505.230469 379.234375 L 505.230469 378.875 L 500.191406 378.875 L 500.191406 374.019531 L 499.996094 374.019531 L 499.996094 373.65625 L 494.359375 373.65625 L 494.359375 368.230469 L 494.15625 368.230469 L 494.15625 367.867188 L 488.519531 367.867188 L 488.519531 362.441406 L 488.316406 362.441406 L 488.316406 362.082031 L 321.980469 362.082031 L 321.980469 367.867188 L 316.726562 367.867188 L 316.726562 373.488281 L 316.59375 373.488281 L 316.59375 373.65625 L 310.894531 373.65625 L 310.894531 378.875 L 305.054688 378.875 L 305.054688 430.421875 L 305.257812 430.421875 L 305.257812 430.785156 L 310.894531 430.785156 L 310.894531 436.207031 L 311.089844 436.207031 L 311.089844 436.566406 L 316.726562 436.566406 L 316.726562 441.425781 L 316.917969 441.425781 L 316.917969 441.789062 L 321.980469 441.789062 L 321.980469 447.222656 L 322.179688 447.222656 L 322.179688 447.582031 L 488.519531 447.582031 L 488.519531 441.789062 L 488.457031 441.789062 L 488.457031 441.425781 L 488.519531 441.425781 L 488.519531 441.789062 L 494.375 441.789062 L 494.375 436.578125 L 500.210938 436.578125 L 500.210938 430.804688 L 505.464844 430.804688 L 505.464844 379.234375 Z M 488.316406 436.308594 Z M 494.171875 430.421875 L 494.171875 430.265625 Z M 494.171875 430.421875"/><path d="M 500.039062 379.230469 L 500.039062 374.023438 L 494.183594 374.023438 L 494.183594 379.507812 L 494.003906 379.507812 L 494.003906 374.023438 L 494.183594 374.023438 L 494.183594 368.257812 L 488.324219 368.257812 L 488.324219 373.855469 L 488.261719 373.855469 L 488.261719 368.257812 L 488.324219 368.257812 L 488.324219 362.457031 L 321.984375 362.457031 L 321.984375 368.257812 L 316.730469 368.257812 L 316.730469 373.855469 L 316.597656 373.855469 L 316.597656 374.023438 L 310.894531 374.023438 L 310.894531 379.230469 L 305.054688 379.230469 L 305.054688 430.726562 L 310.910156 430.726562 L 310.910156 430.570312 L 311.113281 430.570312 L 311.113281 430.726562 L 310.910156 430.726562 L 310.910156 436.511719 L 316.769531 436.511719 L 316.769531 441.71875 L 321.984375 441.71875 L 321.984375 447.503906 L 488.363281 447.503906 L 488.363281 441.71875 L 488.300781 441.71875 L 488.300781 436.605469 L 488.363281 436.605469 L 488.363281 441.71875 L 494.21875 441.71875 L 494.21875 436.511719 L 500.074219 436.511719 L 500.074219 430.726562 L 505.328125 430.726562 L 505.328125 379.230469 Z M 493.996094 436.265625 L 493.996094 431.203125 L 494.179688 431.203125 L 494.179688 436.265625 Z M 499.441406 431 L 494.199219 431 L 494.199219 430.84375 L 499.441406 430.84375 Z M 499.441406 431"/></g><path fill="#81A969" d="M 362.304688 385.03125 L 368.042969 385.03125 L 368.042969 390.765625 L 362.304688 390.765625 Z M 362.304688 385.03125"/><path fill="#81A969" d="M 350.835938 385.03125 L 356.574219 385.03125 L 356.574219 390.765625 L 350.835938 390.765625 Z M 350.835938 385.03125"/><path fill="#81A969" d="M 345.101562 379.304688 L 339.371094 379.304688 L 339.371094 425.132812 L 345.101562 425.132812 L 345.101562 385.027344 L 350.835938 385.027344 L 350.835938 379.304688 Z M 345.101562 379.304688"/><path fill="#81A969" d="M 368.042969 379.304688 L 368.042969 385.027344 L 373.773438 385.027344 L 373.773438 425.132812 L 379.503906 425.132812 L 379.503906 379.304688 Z M 368.042969 379.304688"/><path fill="#81A969" d="M 356.574219 396.484375 L 356.574219 402.214844 L 362.304688 402.214844 L 362.304688 390.765625 L 356.574219 390.765625 Z M 356.574219 396.484375"/><path fill="#81A969" d="M 459.789062 419.402344 L 454.058594 419.402344 L 454.058594 425.132812 L 471.265625 425.132812 L 471.265625 419.402344 Z M 459.789062 419.402344"/><path fill="#81A969" d="M 471.265625 379.304688 L 471.265625 419.402344 L 476.996094 419.402344 L 476.996094 379.304688 Z M 471.265625 379.304688"/><path fill="#81A969" d="M 396.714844 379.304688 L 385.246094 379.304688 L 385.246094 425.132812 L 408.179688 425.132812 L 408.179688 419.402344 L 390.976562 419.402344 L 390.976562 402.214844 L 402.449219 402.214844 L 402.449219 396.484375 L 390.976562 396.484375 L 390.976562 385.027344 L 408.179688 385.027344 L 408.179688 379.304688 Z M 396.714844 379.304688"/><path fill="#81A969" d="M 454.058594 407.945312 L 454.058594 379.304688 L 448.324219 379.304688 L 448.324219 419.402344 L 454.058594 419.402344 Z M 454.058594 407.945312"/><path fill="#81A969" d="M 436.855469 385.027344 L 436.855469 396.484375 L 431.121094 396.484375 L 431.121094 390.765625 L 425.382812 390.765625 L 425.382812 385.027344 L 419.652344 385.027344 L 419.652344 379.304688 L 413.921875 379.304688 L 413.921875 425.132812 L 419.652344 425.132812 L 419.652344 396.484375 L 425.382812 396.484375 L 425.382812 402.214844 L 431.121094 402.214844 L 431.121094 407.945312 L 436.855469 407.945312 L 436.855469 425.132812 L 442.589844 425.132812 L 442.589844 379.304688 L 436.855469 379.304688 Z M 436.855469 385.027344"/><path fill="#81A969" d="M 436.945312 390.765625 L 436.945312 379.214844 L 431.03125 379.214844 L 431.03125 396.574219 L 436.945312 396.574219 Z M 436.945312 390.765625"/><path fill="#81A969" d="M 425.289062 408.035156 L 431.03125 408.035156 L 431.03125 425.222656 L 436.945312 425.222656 L 436.945312 407.855469 L 431.210938 407.855469 L 431.210938 402.125 L 425.472656 402.125 L 425.472656 396.394531 L 419.558594 396.394531 L 419.558594 402.304688 L 425.289062 402.304688 Z M 425.289062 408.035156"/><path fill="#81A969" d="M 471.355469 413.671875 L 471.355469 379.214844 L 465.4375 379.214844 L 465.4375 419.492188 L 471.355469 419.492188 Z M 471.355469 413.671875"/><path fill="#81A969" d="M 414.011719 419.402344 L 414.011719 379.214844 L 408.089844 379.214844 L 408.089844 425.222656 L 414.011719 425.222656 Z M 414.011719 419.402344"/><path fill="#81A969" d="M 448.234375 425.222656 L 454.152344 425.222656 L 454.152344 419.3125 L 448.414062 419.3125 L 448.414062 379.214844 L 442.5 379.214844 L 442.5 419.492188 L 448.234375 419.492188 Z M 448.234375 425.222656"/><path fill="#81A969" d="M 339.460938 419.402344 L 339.460938 379.214844 L 333.542969 379.214844 L 333.542969 425.222656 L 339.460938 425.222656 Z M 339.460938 419.402344"/><path fill="#81A969" d="M 494.515625 379.511719 L 494.515625 379.214844 L 494.152344 379.214844 L 494.152344 430.761719 L 488.421875 430.761719 L 488.421875 436.496094 L 322.277344 436.496094 L 322.277344 442.199219 L 488.601562 442.199219 L 488.601562 436.796875 L 488.675781 436.796875 L 488.675781 436.476562 L 495.75 436.476562 L 495.75 431.84375 L 499.777344 431.84375 L 499.777344 379.511719 Z M 494.515625 379.511719"/><path fill="#81A969" d="M 350.746094 396.484375 L 350.746094 402.304688 L 356.664062 402.304688 L 356.664062 390.671875 L 350.925781 390.671875 L 350.925781 384.941406 L 345.011719 384.941406 L 345.011719 390.855469 L 350.746094 390.855469 Z M 350.746094 396.484375"/><path fill="#81A969" d="M 373.867188 419.402344 L 373.867188 384.941406 L 367.953125 384.941406 L 367.953125 425.222656 L 373.867188 425.222656 Z M 373.867188 419.402344"/><path fill="#81A969" d="M 385.335938 419.402344 L 385.335938 379.214844 L 379.414062 379.214844 L 379.414062 425.222656 L 385.335938 425.222656 Z M 385.335938 419.402344"/><path fill="#FFEDD1" d="M 310.714844 384.855469 L 310.714844 385.027344 L 316.429688 385.027344 L 316.429688 379.597656 L 310.714844 379.597656 Z M 310.714844 384.855469"/><path fill="#FFEDD1" d="M 482.792969 367.910156 L 322.421875 367.910156 L 322.421875 373.75 L 316.566406 373.75 L 316.566406 379.304688 L 327.90625 379.304688 L 327.90625 373.578125 L 488.539062 373.578125 L 488.539062 367.910156 Z M 482.792969 367.910156"/><path fill="#FFEDD1" d="M 488.597656 373.75 L 488.597656 373.578125 L 488.539062 373.578125 L 488.539062 379.304688 L 494.269531 379.304688 L 494.269531 373.75 Z M 488.597656 373.75"/><g clip-path="url(#b)"><path fill="#1A1A1A" d="M 500.4375 378.808594 L 500.4375 373.546875 L 494.578125 373.546875 L 494.578125 367.699219 L 488.722656 367.699219 L 488.722656 361.867188 L 321.625 361.867188 L 321.625 367.714844 L 316.363281 367.714844 L 316.363281 373.566406 L 310.503906 373.566406 L 310.503906 378.808594 L 304.664062 378.808594 L 304.664062 431.214844 L 310.519531 431.214844 L 310.519531 437.066406 L 316.375 437.066406 L 316.375 442.320312 L 321.625 442.320312 L 321.625 448.171875 L 488.734375 448.171875 L 488.734375 442.320312 L 494.59375 442.320312 L 494.59375 437.058594 L 500.449219 437.058594 L 500.449219 431.207031 L 505.679688 431.207031 L 505.679688 378.808594 Z M 499.441406 384.855469 L 499.441406 430.804688 L 494.179688 430.804688 L 494.179688 436.070312 L 488.320312 436.070312 L 488.320312 441.921875 L 322.617188 441.921875 L 322.617188 436.070312 L 316.757812 436.070312 L 316.757812 430.804688 L 310.902344 430.804688 L 310.902344 379.796875 L 316.757812 379.796875 L 316.757812 373.949219 L 322.617188 373.949219 L 322.617188 368.097656 L 488.332031 368.097656 L 488.332031 373.949219 L 494.1875 373.949219 L 494.1875 379.796875 L 499.449219 379.796875 Z M 499.441406 384.855469"/></g><g fill="#FFF"><g><g><path d="M 6.078125 0 L 11.128906 0 L 11.128906 -1.839844 L 9.957031 -1.839844 L 9.957031 -5.941406 L 15.058594 -13.5 L 16.371094 -13.5 L 16.371094 -15.339844 L 10.429688 -15.339844 L 10.429688 -13.5 L 11.851562 -13.5 L 8.617188 -8.617188 L 5.382812 -13.5 L 6.777344 -13.5 L 6.777344 -15.339844 L 0.835938 -15.339844 L 0.835938 -13.5 L 2.148438 -13.5 L 7.25 -5.914062 L 7.25 -1.839844 L 6.078125 -1.839844 Z M 6.078125 0" transform="translate(377.668 411.434)"/></g></g></g><g fill="#FFF"><g><g><path d="M 1.535156 0 L 13.804688 0 L 13.804688 -3.320312 L 11.683594 -3.320312 L 11.683594 -1.980469 L 5.523438 -1.980469 L 5.523438 -6.21875 L 12.160156 -6.21875 L 12.160156 -8.507812 L 5.523438 -8.507812 L 5.523438 -12.996094 L 11.683594 -12.996094 L 11.683594 -12.019531 L 13.804688 -12.019531 L 13.804688 -15.339844 L 1.535156 -15.339844 L 1.535156 -13.5 L 2.816406 -13.5 L 2.816406 -1.980469 L 1.535156 -1.980469 Z M 1.535156 0" transform="translate(398.159 411.434)"/></g></g></g><g fill="#FFF"><g><g><path d="M 7.640625 0.140625 C 10.597656 0.140625 14.027344 0.113281 14.027344 -4.210938 C 14.027344 -8.535156 4.238281 -8.339844 4.238281 -11.101562 C 4.238281 -12.300781 5.410156 -13.21875 8.199219 -13.21875 C 8.394531 -13.21875 10.765625 -13.050781 11.628906 -12.773438 L 11.628906 -11.351562 L 13.75 -11.351562 L 13.75 -14.503906 C 11.9375 -15.003906 10.039062 -15.476562 8.171875 -15.476562 C 5.160156 -15.476562 1.535156 -14.363281 1.535156 -11.101562 C 1.535156 -5.882812 11.324219 -5.941406 11.324219 -4.015625 C 11.324219 -1.894531 9.398438 -1.839844 7.726562 -1.839844 C 6.582031 -1.839844 5.074219 -1.980469 3.765625 -2.84375 L 3.765625 -4.042969 L 1.644531 -4.042969 L 1.644531 -1.507812 C 2.734375 -0.585938 5.105469 0.140625 7.640625 0.140625 Z M 7.640625 0.140625" transform="translate(416.782 411.434)"/></g></g></g></svg>